<mxfile host="65bd71144e">
    <diagram id="sMg6SeqQudHThW16htah" name="Page-1">
        <mxGraphModel dx="1676" dy="1101" grid="0" gridSize="10" guides="1" tooltips="1" connect="1" arrows="1" fold="1" page="1" pageScale="1" pageWidth="4681" pageHeight="3300" math="0" shadow="0">
            <root>
                <mxCell id="0"/>
                <mxCell id="1" parent="0"/>
                <mxCell id="200" value="" style="rounded=1;whiteSpace=wrap;html=1;fillColor=#e1d5e7;strokeColor=#9673a6;strokeWidth=2;arcSize=0;opacity=70;" vertex="1" parent="1">
                    <mxGeometry x="188" y="1345" width="332" height="34" as="geometry"/>
                </mxCell>
                <mxCell id="201" value="" style="rounded=1;whiteSpace=wrap;html=1;fillColor=#d5e8d4;strokeColor=#82b366;strokeWidth=2;arcSize=0;opacity=70;" vertex="1" parent="1">
                    <mxGeometry x="191" y="1349.25" width="153" height="25.5" as="geometry"/>
                </mxCell>
                <mxCell id="202" value="" style="shape=table;html=1;whiteSpace=wrap;startSize=0;container=1;collapsible=0;childLayout=tableLayout;fillColor=none;" vertex="1" parent="1">
                    <mxGeometry x="125" y="1302" width="399.9" height="120" as="geometry"/>
                </mxCell>
                <mxCell id="203" value="" style="shape=tableRow;horizontal=0;startSize=0;swimlaneHead=0;swimlaneBody=0;top=0;left=0;bottom=0;right=0;collapsible=0;dropTarget=0;fillColor=none;points=[[0,0.5],[1,0.5]];portConstraint=eastwest;" vertex="1" parent="202">
                    <mxGeometry width="399.9" height="40" as="geometry"/>
                </mxCell>
                <mxCell id="204" value="" style="shape=partialRectangle;html=1;whiteSpace=wrap;connectable=0;fillColor=none;top=0;left=0;bottom=0;right=0;overflow=hidden;" vertex="1" parent="203">
                    <mxGeometry width="60" height="40" as="geometry">
                        <mxRectangle width="60" height="40" as="alternateBounds"/>
                    </mxGeometry>
                </mxCell>
                <mxCell id="205" value="正例" style="shape=partialRectangle;html=1;whiteSpace=wrap;connectable=0;fillColor=none;top=0;left=0;bottom=0;right=0;overflow=hidden;" vertex="1" parent="203">
                    <mxGeometry x="60" width="170" height="40" as="geometry">
                        <mxRectangle width="170" height="40" as="alternateBounds"/>
                    </mxGeometry>
                </mxCell>
                <mxCell id="206" value="负例" style="shape=partialRectangle;html=1;whiteSpace=wrap;connectable=0;fillColor=none;top=0;left=0;bottom=0;right=0;overflow=hidden;" vertex="1" parent="203">
                    <mxGeometry x="230" width="170" height="40" as="geometry">
                        <mxRectangle width="170" height="40" as="alternateBounds"/>
                    </mxGeometry>
                </mxCell>
                <mxCell id="207" value="" style="shape=tableRow;horizontal=0;startSize=0;swimlaneHead=0;swimlaneBody=0;top=0;left=0;bottom=0;right=0;collapsible=0;dropTarget=0;fillColor=none;points=[[0,0.5],[1,0.5]];portConstraint=eastwest;" vertex="1" parent="202">
                    <mxGeometry y="40" width="399.9" height="40" as="geometry"/>
                </mxCell>
                <mxCell id="208" value="正例" style="shape=partialRectangle;html=1;whiteSpace=wrap;connectable=0;fillColor=none;top=0;left=0;bottom=0;right=0;overflow=hidden;" vertex="1" parent="207">
                    <mxGeometry width="60" height="40" as="geometry">
                        <mxRectangle width="60" height="40" as="alternateBounds"/>
                    </mxGeometry>
                </mxCell>
                <mxCell id="209" value="&lt;b&gt;&lt;span&gt;真正例（&lt;/span&gt;&lt;span lang=&quot;EN-US&quot;&gt;True Positive, TP&lt;/span&gt;&lt;span&gt;）&lt;/span&gt;&lt;/b&gt;" style="shape=partialRectangle;html=1;whiteSpace=wrap;connectable=0;fillColor=none;top=0;left=0;bottom=0;right=0;overflow=hidden;" vertex="1" parent="207">
                    <mxGeometry x="60" width="170" height="40" as="geometry">
                        <mxRectangle width="170" height="40" as="alternateBounds"/>
                    </mxGeometry>
                </mxCell>
                <mxCell id="210" value="&lt;span style=&quot;font-size:10.5pt;mso-bidi-font-size:11.0pt;&lt;br/&gt;font-family:宋体;mso-ascii-font-family:&amp;quot;Times New Roman&amp;quot;;mso-hansi-font-family:&lt;br/&gt;&amp;quot;Times New Roman&amp;quot;;mso-bidi-font-family:&amp;quot;Times New Roman&amp;quot;;mso-font-kerning:1.0pt;&lt;br/&gt;mso-ansi-language:EN-US;mso-fareast-language:ZH-CN;mso-bidi-language:AR-SA&quot;&gt;假负例（&lt;/span&gt;&lt;span style=&quot;font-size:10.5pt;mso-bidi-font-size:11.0pt;font-family:&amp;quot;Times New Roman&amp;quot;,serif;&lt;br/&gt;mso-fareast-font-family:宋体;mso-font-kerning:1.0pt;mso-ansi-language:EN-US;&lt;br/&gt;mso-fareast-language:ZH-CN;mso-bidi-language:AR-SA&quot; lang=&quot;EN-US&quot;&gt;False Negative, FN&lt;/span&gt;&lt;span style=&quot;font-size:10.5pt;mso-bidi-font-size:11.0pt;font-family:宋体;mso-ascii-font-family:&lt;br/&gt;&amp;quot;Times New Roman&amp;quot;;mso-hansi-font-family:&amp;quot;Times New Roman&amp;quot;;mso-bidi-font-family:&lt;br/&gt;&amp;quot;Times New Roman&amp;quot;;mso-font-kerning:1.0pt;mso-ansi-language:EN-US;mso-fareast-language:&lt;br/&gt;ZH-CN;mso-bidi-language:AR-SA&quot;&gt;）&lt;/span&gt;" style="shape=partialRectangle;html=1;whiteSpace=wrap;connectable=0;fillColor=none;top=0;left=0;bottom=0;right=0;overflow=hidden;pointerEvents=1;" vertex="1" parent="207">
                    <mxGeometry x="230" width="170" height="40" as="geometry">
                        <mxRectangle width="170" height="40" as="alternateBounds"/>
                    </mxGeometry>
                </mxCell>
                <mxCell id="211" style="shape=tableRow;horizontal=0;startSize=0;swimlaneHead=0;swimlaneBody=0;top=0;left=0;bottom=0;right=0;collapsible=0;dropTarget=0;fillColor=none;points=[[0,0.5],[1,0.5]];portConstraint=eastwest;" vertex="1" parent="202">
                    <mxGeometry y="80" width="399.9" height="40" as="geometry"/>
                </mxCell>
                <mxCell id="212" value="负例" style="shape=partialRectangle;html=1;whiteSpace=wrap;connectable=0;fillColor=none;top=0;left=0;bottom=0;right=0;overflow=hidden;" vertex="1" parent="211">
                    <mxGeometry width="60" height="40" as="geometry">
                        <mxRectangle width="60" height="40" as="alternateBounds"/>
                    </mxGeometry>
                </mxCell>
                <mxCell id="213" value="&lt;span style=&quot;font-size:10.5pt;mso-bidi-font-size:11.0pt;&lt;br/&gt;font-family:宋体;mso-ascii-font-family:&amp;quot;Times New Roman&amp;quot;;mso-hansi-font-family:&lt;br/&gt;&amp;quot;Times New Roman&amp;quot;;mso-bidi-font-family:&amp;quot;Times New Roman&amp;quot;;mso-font-kerning:1.0pt;&lt;br/&gt;mso-ansi-language:EN-US;mso-fareast-language:ZH-CN;mso-bidi-language:AR-SA&quot;&gt;假正例（&lt;/span&gt;&lt;span style=&quot;font-size:10.5pt;mso-bidi-font-size:11.0pt;font-family:&amp;quot;Times New Roman&amp;quot;,serif;&lt;br/&gt;mso-fareast-font-family:宋体;mso-font-kerning:1.0pt;mso-ansi-language:EN-US;&lt;br/&gt;mso-fareast-language:ZH-CN;mso-bidi-language:AR-SA&quot; lang=&quot;EN-US&quot;&gt;False Positive, FP&lt;/span&gt;&lt;span style=&quot;font-size:10.5pt;mso-bidi-font-size:11.0pt;font-family:宋体;mso-ascii-font-family:&lt;br/&gt;&amp;quot;Times New Roman&amp;quot;;mso-hansi-font-family:&amp;quot;Times New Roman&amp;quot;;mso-bidi-font-family:&lt;br/&gt;&amp;quot;Times New Roman&amp;quot;;mso-font-kerning:1.0pt;mso-ansi-language:EN-US;mso-fareast-language:&lt;br/&gt;ZH-CN;mso-bidi-language:AR-SA&quot;&gt;）&lt;/span&gt;" style="shape=partialRectangle;html=1;whiteSpace=wrap;connectable=0;fillColor=none;top=0;left=0;bottom=0;right=0;overflow=hidden;" vertex="1" parent="211">
                    <mxGeometry x="60" width="170" height="40" as="geometry">
                        <mxRectangle width="170" height="40" as="alternateBounds"/>
                    </mxGeometry>
                </mxCell>
                <mxCell id="214" value="&lt;b&gt;&lt;span&gt;真负例（&lt;/span&gt;&lt;span lang=&quot;EN-US&quot;&gt;True Negative, TN&lt;/span&gt;&lt;span&gt;）&lt;/span&gt;&lt;/b&gt;" style="shape=partialRectangle;html=1;whiteSpace=wrap;connectable=0;fillColor=none;top=0;left=0;bottom=0;right=0;overflow=hidden;pointerEvents=1;" vertex="1" parent="211">
                    <mxGeometry x="230" width="170" height="40" as="geometry">
                        <mxRectangle width="170" height="40" as="alternateBounds"/>
                    </mxGeometry>
                </mxCell>
                <mxCell id="215" value="" style="endArrow=none;html=1;fontSize=12;entryX=0;entryY=0;entryDx=0;entryDy=0;exitX=0.15;exitY=1;exitDx=0;exitDy=0;exitPerimeter=0;" edge="1" parent="202" source="203" target="202">
                    <mxGeometry width="50" height="50" relative="1" as="geometry">
                        <mxPoint x="152" y="90" as="sourcePoint"/>
                        <mxPoint x="202" y="40" as="targetPoint"/>
                    </mxGeometry>
                </mxCell>
                <mxCell id="163" value="" style="rounded=1;whiteSpace=wrap;html=1;fillColor=#e1d5e7;strokeColor=#9673a6;strokeWidth=2;arcSize=0;opacity=70;" vertex="1" parent="1">
                    <mxGeometry x="186" y="1139" width="163" height="72" as="geometry"/>
                </mxCell>
                <mxCell id="164" value="" style="rounded=1;whiteSpace=wrap;html=1;fillColor=#d5e8d4;strokeColor=#82b366;strokeWidth=2;arcSize=0;opacity=70;" vertex="1" parent="1">
                    <mxGeometry x="189" y="1143.25" width="153" height="25.5" as="geometry"/>
                </mxCell>
                <mxCell id="166" value="" style="shape=table;html=1;whiteSpace=wrap;startSize=0;container=1;collapsible=0;childLayout=tableLayout;fillColor=none;" vertex="1" parent="1">
                    <mxGeometry x="123" y="1096" width="399.9" height="120" as="geometry"/>
                </mxCell>
                <mxCell id="167" value="" style="shape=tableRow;horizontal=0;startSize=0;swimlaneHead=0;swimlaneBody=0;top=0;left=0;bottom=0;right=0;collapsible=0;dropTarget=0;fillColor=none;points=[[0,0.5],[1,0.5]];portConstraint=eastwest;" vertex="1" parent="166">
                    <mxGeometry width="399.9" height="40" as="geometry"/>
                </mxCell>
                <mxCell id="168" value="" style="shape=partialRectangle;html=1;whiteSpace=wrap;connectable=0;fillColor=none;top=0;left=0;bottom=0;right=0;overflow=hidden;" vertex="1" parent="167">
                    <mxGeometry width="60" height="40" as="geometry">
                        <mxRectangle width="60" height="40" as="alternateBounds"/>
                    </mxGeometry>
                </mxCell>
                <mxCell id="169" value="正例" style="shape=partialRectangle;html=1;whiteSpace=wrap;connectable=0;fillColor=none;top=0;left=0;bottom=0;right=0;overflow=hidden;" vertex="1" parent="167">
                    <mxGeometry x="60" width="170" height="40" as="geometry">
                        <mxRectangle width="170" height="40" as="alternateBounds"/>
                    </mxGeometry>
                </mxCell>
                <mxCell id="170" value="负例" style="shape=partialRectangle;html=1;whiteSpace=wrap;connectable=0;fillColor=none;top=0;left=0;bottom=0;right=0;overflow=hidden;" vertex="1" parent="167">
                    <mxGeometry x="230" width="170" height="40" as="geometry">
                        <mxRectangle width="170" height="40" as="alternateBounds"/>
                    </mxGeometry>
                </mxCell>
                <mxCell id="171" value="" style="shape=tableRow;horizontal=0;startSize=0;swimlaneHead=0;swimlaneBody=0;top=0;left=0;bottom=0;right=0;collapsible=0;dropTarget=0;fillColor=none;points=[[0,0.5],[1,0.5]];portConstraint=eastwest;" vertex="1" parent="166">
                    <mxGeometry y="40" width="399.9" height="40" as="geometry"/>
                </mxCell>
                <mxCell id="172" value="正例" style="shape=partialRectangle;html=1;whiteSpace=wrap;connectable=0;fillColor=none;top=0;left=0;bottom=0;right=0;overflow=hidden;" vertex="1" parent="171">
                    <mxGeometry width="60" height="40" as="geometry">
                        <mxRectangle width="60" height="40" as="alternateBounds"/>
                    </mxGeometry>
                </mxCell>
                <mxCell id="173" value="&lt;b&gt;&lt;span&gt;真正例（&lt;/span&gt;&lt;span lang=&quot;EN-US&quot;&gt;True Positive, TP&lt;/span&gt;&lt;span&gt;）&lt;/span&gt;&lt;/b&gt;" style="shape=partialRectangle;html=1;whiteSpace=wrap;connectable=0;fillColor=none;top=0;left=0;bottom=0;right=0;overflow=hidden;" vertex="1" parent="171">
                    <mxGeometry x="60" width="170" height="40" as="geometry">
                        <mxRectangle width="170" height="40" as="alternateBounds"/>
                    </mxGeometry>
                </mxCell>
                <mxCell id="174" value="&lt;span style=&quot;font-size:10.5pt;mso-bidi-font-size:11.0pt;&lt;br/&gt;font-family:宋体;mso-ascii-font-family:&amp;quot;Times New Roman&amp;quot;;mso-hansi-font-family:&lt;br/&gt;&amp;quot;Times New Roman&amp;quot;;mso-bidi-font-family:&amp;quot;Times New Roman&amp;quot;;mso-font-kerning:1.0pt;&lt;br/&gt;mso-ansi-language:EN-US;mso-fareast-language:ZH-CN;mso-bidi-language:AR-SA&quot;&gt;假负例（&lt;/span&gt;&lt;span style=&quot;font-size:10.5pt;mso-bidi-font-size:11.0pt;font-family:&amp;quot;Times New Roman&amp;quot;,serif;&lt;br/&gt;mso-fareast-font-family:宋体;mso-font-kerning:1.0pt;mso-ansi-language:EN-US;&lt;br/&gt;mso-fareast-language:ZH-CN;mso-bidi-language:AR-SA&quot; lang=&quot;EN-US&quot;&gt;False Negative, FN&lt;/span&gt;&lt;span style=&quot;font-size:10.5pt;mso-bidi-font-size:11.0pt;font-family:宋体;mso-ascii-font-family:&lt;br/&gt;&amp;quot;Times New Roman&amp;quot;;mso-hansi-font-family:&amp;quot;Times New Roman&amp;quot;;mso-bidi-font-family:&lt;br/&gt;&amp;quot;Times New Roman&amp;quot;;mso-font-kerning:1.0pt;mso-ansi-language:EN-US;mso-fareast-language:&lt;br/&gt;ZH-CN;mso-bidi-language:AR-SA&quot;&gt;）&lt;/span&gt;" style="shape=partialRectangle;html=1;whiteSpace=wrap;connectable=0;fillColor=none;top=0;left=0;bottom=0;right=0;overflow=hidden;pointerEvents=1;" vertex="1" parent="171">
                    <mxGeometry x="230" width="170" height="40" as="geometry">
                        <mxRectangle width="170" height="40" as="alternateBounds"/>
                    </mxGeometry>
                </mxCell>
                <mxCell id="175" style="shape=tableRow;horizontal=0;startSize=0;swimlaneHead=0;swimlaneBody=0;top=0;left=0;bottom=0;right=0;collapsible=0;dropTarget=0;fillColor=none;points=[[0,0.5],[1,0.5]];portConstraint=eastwest;" vertex="1" parent="166">
                    <mxGeometry y="80" width="399.9" height="40" as="geometry"/>
                </mxCell>
                <mxCell id="176" value="负例" style="shape=partialRectangle;html=1;whiteSpace=wrap;connectable=0;fillColor=none;top=0;left=0;bottom=0;right=0;overflow=hidden;" vertex="1" parent="175">
                    <mxGeometry width="60" height="40" as="geometry">
                        <mxRectangle width="60" height="40" as="alternateBounds"/>
                    </mxGeometry>
                </mxCell>
                <mxCell id="177" value="&lt;span style=&quot;font-size:10.5pt;mso-bidi-font-size:11.0pt;&lt;br/&gt;font-family:宋体;mso-ascii-font-family:&amp;quot;Times New Roman&amp;quot;;mso-hansi-font-family:&lt;br/&gt;&amp;quot;Times New Roman&amp;quot;;mso-bidi-font-family:&amp;quot;Times New Roman&amp;quot;;mso-font-kerning:1.0pt;&lt;br/&gt;mso-ansi-language:EN-US;mso-fareast-language:ZH-CN;mso-bidi-language:AR-SA&quot;&gt;假正例（&lt;/span&gt;&lt;span style=&quot;font-size:10.5pt;mso-bidi-font-size:11.0pt;font-family:&amp;quot;Times New Roman&amp;quot;,serif;&lt;br/&gt;mso-fareast-font-family:宋体;mso-font-kerning:1.0pt;mso-ansi-language:EN-US;&lt;br/&gt;mso-fareast-language:ZH-CN;mso-bidi-language:AR-SA&quot; lang=&quot;EN-US&quot;&gt;False Positive, FP&lt;/span&gt;&lt;span style=&quot;font-size:10.5pt;mso-bidi-font-size:11.0pt;font-family:宋体;mso-ascii-font-family:&lt;br/&gt;&amp;quot;Times New Roman&amp;quot;;mso-hansi-font-family:&amp;quot;Times New Roman&amp;quot;;mso-bidi-font-family:&lt;br/&gt;&amp;quot;Times New Roman&amp;quot;;mso-font-kerning:1.0pt;mso-ansi-language:EN-US;mso-fareast-language:&lt;br/&gt;ZH-CN;mso-bidi-language:AR-SA&quot;&gt;）&lt;/span&gt;" style="shape=partialRectangle;html=1;whiteSpace=wrap;connectable=0;fillColor=none;top=0;left=0;bottom=0;right=0;overflow=hidden;" vertex="1" parent="175">
                    <mxGeometry x="60" width="170" height="40" as="geometry">
                        <mxRectangle width="170" height="40" as="alternateBounds"/>
                    </mxGeometry>
                </mxCell>
                <mxCell id="178" value="&lt;b&gt;&lt;span&gt;真负例（&lt;/span&gt;&lt;span lang=&quot;EN-US&quot;&gt;True Negative, TN&lt;/span&gt;&lt;span&gt;）&lt;/span&gt;&lt;/b&gt;" style="shape=partialRectangle;html=1;whiteSpace=wrap;connectable=0;fillColor=none;top=0;left=0;bottom=0;right=0;overflow=hidden;pointerEvents=1;" vertex="1" parent="175">
                    <mxGeometry x="230" width="170" height="40" as="geometry">
                        <mxRectangle width="170" height="40" as="alternateBounds"/>
                    </mxGeometry>
                </mxCell>
                <mxCell id="179" value="" style="endArrow=none;html=1;fontSize=12;entryX=0;entryY=0;entryDx=0;entryDy=0;exitX=0.15;exitY=1;exitDx=0;exitDy=0;exitPerimeter=0;" edge="1" parent="166" source="167" target="166">
                    <mxGeometry width="50" height="50" relative="1" as="geometry">
                        <mxPoint x="152" y="90" as="sourcePoint"/>
                        <mxPoint x="202" y="40" as="targetPoint"/>
                    </mxGeometry>
                </mxCell>
                <mxCell id="159" value="" style="rounded=1;whiteSpace=wrap;html=1;fillColor=#e1d5e7;strokeColor=#9673a6;strokeWidth=2;arcSize=0;opacity=70;" vertex="1" parent="1">
                    <mxGeometry x="183" y="964" width="333" height="72" as="geometry"/>
                </mxCell>
                <mxCell id="161" value="" style="rounded=1;whiteSpace=wrap;html=1;fillColor=#d5e8d4;strokeColor=#82b366;strokeWidth=2;arcSize=0;opacity=70;" vertex="1" parent="1">
                    <mxGeometry x="186" y="968.25" width="152" height="25.5" as="geometry"/>
                </mxCell>
                <mxCell id="162" value="" style="rounded=1;whiteSpace=wrap;html=1;fillColor=#d5e8d4;strokeColor=#82b366;strokeWidth=2;arcSize=0;opacity=70;" vertex="1" parent="1">
                    <mxGeometry x="354" y="1007" width="156" height="25.5" as="geometry"/>
                </mxCell>
                <mxCell id="9" value="" style="endArrow=classic;html=1;" parent="1" edge="1">
                    <mxGeometry width="50" height="50" relative="1" as="geometry">
                        <mxPoint x="120" y="241.04999999999995" as="sourcePoint"/>
                        <mxPoint x="292" y="240" as="targetPoint"/>
                    </mxGeometry>
                </mxCell>
                <mxCell id="10" value="" style="endArrow=classic;html=1;" parent="1" edge="1">
                    <mxGeometry width="50" height="50" relative="1" as="geometry">
                        <mxPoint x="120" y="241.04999999999995" as="sourcePoint"/>
                        <mxPoint x="120" y="91" as="targetPoint"/>
                    </mxGeometry>
                </mxCell>
                <mxCell id="12" value="" style="shape=waypoint;fillStyle=solid;size=6;pointerEvents=1;points=[];fillColor=#d5e8d4;resizable=0;rotatable=0;perimeter=centerPerimeter;snapToPoint=1;strokeColor=#82b366;" parent="1" vertex="1">
                    <mxGeometry x="188" y="170" width="20" height="20" as="geometry"/>
                </mxCell>
                <mxCell id="13" value="" style="shape=waypoint;fillStyle=solid;size=6;pointerEvents=1;points=[];fillColor=#d5e8d4;resizable=0;rotatable=0;perimeter=centerPerimeter;snapToPoint=1;strokeColor=#82b366;" parent="1" vertex="1">
                    <mxGeometry x="202" y="144" width="20" height="20" as="geometry"/>
                </mxCell>
                <mxCell id="18" value="" style="shape=waypoint;fillStyle=solid;size=6;pointerEvents=1;points=[];fillColor=#d5e8d4;resizable=0;rotatable=0;perimeter=centerPerimeter;snapToPoint=1;strokeColor=#82b366;" parent="1" vertex="1">
                    <mxGeometry x="166" y="167" width="20" height="20" as="geometry"/>
                </mxCell>
                <mxCell id="19" value="" style="shape=waypoint;fillStyle=solid;size=6;pointerEvents=1;points=[];fillColor=#d5e8d4;resizable=0;rotatable=0;perimeter=centerPerimeter;snapToPoint=1;strokeColor=#82b366;" parent="1" vertex="1">
                    <mxGeometry x="128" y="208" width="20" height="20" as="geometry"/>
                </mxCell>
                <mxCell id="32" value="" style="shape=waypoint;fillStyle=solid;size=6;pointerEvents=1;points=[];fillColor=#d5e8d4;resizable=0;rotatable=0;perimeter=centerPerimeter;snapToPoint=1;strokeColor=#82b366;" parent="1" vertex="1">
                    <mxGeometry x="156" y="195" width="20" height="20" as="geometry"/>
                </mxCell>
                <mxCell id="35" value="" style="shape=waypoint;fillStyle=solid;size=6;pointerEvents=1;points=[];fillColor=#d5e8d4;resizable=0;rotatable=0;perimeter=centerPerimeter;snapToPoint=1;strokeColor=#82b366;" parent="1" vertex="1">
                    <mxGeometry x="247" y="115" width="20" height="20" as="geometry"/>
                </mxCell>
                <mxCell id="36" value="" style="shape=waypoint;fillStyle=solid;size=6;pointerEvents=1;points=[];fillColor=#d5e8d4;resizable=0;rotatable=0;perimeter=centerPerimeter;snapToPoint=1;strokeColor=#82b366;" parent="1" vertex="1">
                    <mxGeometry x="225" y="147" width="20" height="20" as="geometry"/>
                </mxCell>
                <mxCell id="46" value="" style="endArrow=none;html=1;fillColor=#f8cecc;strokeColor=#000000;" parent="1" edge="1">
                    <mxGeometry width="50" height="50" relative="1" as="geometry">
                        <mxPoint x="120" y="234" as="sourcePoint"/>
                        <mxPoint x="270" y="120" as="targetPoint"/>
                    </mxGeometry>
                </mxCell>
                <mxCell id="47" value="" style="endArrow=none;html=1;strokeColor=#b85450;strokeWidth=1;fillColor=#f8cecc;" parent="1" target="19" edge="1">
                    <mxGeometry width="50" height="50" relative="1" as="geometry">
                        <mxPoint x="138" y="220" as="sourcePoint"/>
                        <mxPoint x="243" y="156" as="targetPoint"/>
                    </mxGeometry>
                </mxCell>
                <mxCell id="48" value="" style="endArrow=none;html=1;strokeColor=#b85450;strokeWidth=1;fillColor=#f8cecc;" parent="1" source="32" edge="1">
                    <mxGeometry width="50" height="50" relative="1" as="geometry">
                        <mxPoint x="148" y="231" as="sourcePoint"/>
                        <mxPoint x="166" y="199" as="targetPoint"/>
                    </mxGeometry>
                </mxCell>
                <mxCell id="49" value="" style="endArrow=none;html=1;strokeColor=#b85450;strokeWidth=1;fillColor=#f8cecc;" parent="1" source="18" edge="1">
                    <mxGeometry width="50" height="50" relative="1" as="geometry">
                        <mxPoint x="176" y="215" as="sourcePoint"/>
                        <mxPoint x="176" y="192" as="targetPoint"/>
                    </mxGeometry>
                </mxCell>
                <mxCell id="50" value="" style="endArrow=none;html=1;strokeColor=#b85450;strokeWidth=1;fillColor=#f8cecc;" parent="1" source="12" edge="1">
                    <mxGeometry width="50" height="50" relative="1" as="geometry">
                        <mxPoint x="186" y="187" as="sourcePoint"/>
                        <mxPoint x="198" y="175" as="targetPoint"/>
                    </mxGeometry>
                </mxCell>
                <mxCell id="51" value="" style="endArrow=none;html=1;strokeColor=#b85450;strokeWidth=1;fillColor=#f8cecc;" parent="1" source="13" edge="1">
                    <mxGeometry width="50" height="50" relative="1" as="geometry">
                        <mxPoint x="197.92" y="152" as="sourcePoint"/>
                        <mxPoint x="212" y="164" as="targetPoint"/>
                    </mxGeometry>
                </mxCell>
                <mxCell id="52" value="" style="endArrow=none;html=1;strokeColor=#b85450;strokeWidth=1;fillColor=#f8cecc;" parent="1" target="36" edge="1">
                    <mxGeometry width="50" height="50" relative="1" as="geometry">
                        <mxPoint x="235" y="147" as="sourcePoint"/>
                        <mxPoint x="222" y="147" as="targetPoint"/>
                    </mxGeometry>
                </mxCell>
                <mxCell id="53" value="" style="endArrow=none;html=1;strokeColor=#b85450;strokeWidth=1;fillColor=#f8cecc;" parent="1" source="35" edge="1">
                    <mxGeometry width="50" height="50" relative="1" as="geometry">
                        <mxPoint x="244.99999999999994" y="157" as="sourcePoint"/>
                        <mxPoint x="257" y="130" as="targetPoint"/>
                    </mxGeometry>
                </mxCell>
                <mxCell id="54" value="" style="endArrow=classic;html=1;" parent="1" edge="1">
                    <mxGeometry width="50" height="50" relative="1" as="geometry">
                        <mxPoint x="122" y="486.04999999999995" as="sourcePoint"/>
                        <mxPoint x="294" y="485" as="targetPoint"/>
                    </mxGeometry>
                </mxCell>
                <mxCell id="55" value="" style="endArrow=classic;html=1;" parent="1" edge="1">
                    <mxGeometry width="50" height="50" relative="1" as="geometry">
                        <mxPoint x="122.39999999999998" y="486.04999999999995" as="sourcePoint"/>
                        <mxPoint x="122.39999999999998" y="344" as="targetPoint"/>
                    </mxGeometry>
                </mxCell>
                <mxCell id="71" value="误差" style="text;html=1;strokeColor=none;fillColor=none;align=center;verticalAlign=middle;whiteSpace=wrap;rounded=0;fontSize=10;" parent="1" vertex="1">
                    <mxGeometry x="83" y="336" width="42" height="26" as="geometry"/>
                </mxCell>
                <mxCell id="72" value="模型复杂度" style="text;html=1;strokeColor=none;fillColor=none;align=center;verticalAlign=middle;whiteSpace=wrap;rounded=0;fontSize=10;" parent="1" vertex="1">
                    <mxGeometry x="251" y="485" width="78" height="26" as="geometry"/>
                </mxCell>
                <mxCell id="75" value="" style="curved=1;endArrow=none;html=1;endFill=0;" parent="1" edge="1">
                    <mxGeometry width="50" height="50" relative="1" as="geometry">
                        <mxPoint x="133" y="358" as="sourcePoint"/>
                        <mxPoint x="280" y="409" as="targetPoint"/>
                        <Array as="points">
                            <mxPoint x="153" y="429"/>
                            <mxPoint x="216" y="459"/>
                        </Array>
                    </mxGeometry>
                </mxCell>
                <mxCell id="76" value="" style="curved=1;endArrow=none;html=1;endFill=0;" parent="1" edge="1">
                    <mxGeometry width="50" height="50" relative="1" as="geometry">
                        <mxPoint x="131" y="373" as="sourcePoint"/>
                        <mxPoint x="282" y="466" as="targetPoint"/>
                        <Array as="points">
                            <mxPoint x="143" y="430"/>
                            <mxPoint x="201" y="469"/>
                        </Array>
                    </mxGeometry>
                </mxCell>
                <mxCell id="77" value="测试误差" style="text;html=1;strokeColor=none;fillColor=none;align=center;verticalAlign=middle;whiteSpace=wrap;rounded=0;fontSize=8;" parent="1" vertex="1">
                    <mxGeometry x="280" y="392" width="42" height="26" as="geometry"/>
                </mxCell>
                <mxCell id="78" value="训练误差" style="text;html=1;strokeColor=none;fillColor=none;align=center;verticalAlign=middle;whiteSpace=wrap;rounded=0;fontSize=8;" parent="1" vertex="1">
                    <mxGeometry x="280" y="452" width="42" height="26" as="geometry"/>
                </mxCell>
                <mxCell id="82" value="欠拟合" style="text;html=1;strokeColor=none;fillColor=none;align=center;verticalAlign=middle;whiteSpace=wrap;rounded=0;fontSize=8;fontColor=#CC0000;" parent="1" vertex="1">
                    <mxGeometry x="131" y="354" width="42" height="22" as="geometry"/>
                </mxCell>
                <mxCell id="83" value="过拟合" style="text;html=1;strokeColor=none;fillColor=none;align=center;verticalAlign=middle;whiteSpace=wrap;rounded=0;fontSize=8;fontColor=#CC0000;" parent="1" vertex="1">
                    <mxGeometry x="245" y="389" width="42" height="22" as="geometry"/>
                </mxCell>
                <mxCell id="84" value="" style="shape=table;html=1;whiteSpace=wrap;startSize=0;container=1;collapsible=0;childLayout=tableLayout;" parent="1" vertex="1">
                    <mxGeometry x="120" y="584" width="399.9" height="120" as="geometry"/>
                </mxCell>
                <mxCell id="85" value="" style="shape=tableRow;horizontal=0;startSize=0;swimlaneHead=0;swimlaneBody=0;top=0;left=0;bottom=0;right=0;collapsible=0;dropTarget=0;fillColor=none;points=[[0,0.5],[1,0.5]];portConstraint=eastwest;" parent="84" vertex="1">
                    <mxGeometry width="399.9" height="40" as="geometry"/>
                </mxCell>
                <mxCell id="86" value="" style="shape=partialRectangle;html=1;whiteSpace=wrap;connectable=0;fillColor=none;top=0;left=0;bottom=0;right=0;overflow=hidden;" parent="85" vertex="1">
                    <mxGeometry width="60" height="40" as="geometry">
                        <mxRectangle width="60" height="40" as="alternateBounds"/>
                    </mxGeometry>
                </mxCell>
                <mxCell id="87" value="正例" style="shape=partialRectangle;html=1;whiteSpace=wrap;connectable=0;fillColor=none;top=0;left=0;bottom=0;right=0;overflow=hidden;" parent="85" vertex="1">
                    <mxGeometry x="60" width="170" height="40" as="geometry">
                        <mxRectangle width="170" height="40" as="alternateBounds"/>
                    </mxGeometry>
                </mxCell>
                <mxCell id="88" value="负例" style="shape=partialRectangle;html=1;whiteSpace=wrap;connectable=0;fillColor=none;top=0;left=0;bottom=0;right=0;overflow=hidden;" parent="85" vertex="1">
                    <mxGeometry x="230" width="170" height="40" as="geometry">
                        <mxRectangle width="170" height="40" as="alternateBounds"/>
                    </mxGeometry>
                </mxCell>
                <mxCell id="93" value="" style="shape=tableRow;horizontal=0;startSize=0;swimlaneHead=0;swimlaneBody=0;top=0;left=0;bottom=0;right=0;collapsible=0;dropTarget=0;fillColor=none;points=[[0,0.5],[1,0.5]];portConstraint=eastwest;" parent="84" vertex="1">
                    <mxGeometry y="40" width="399.9" height="40" as="geometry"/>
                </mxCell>
                <mxCell id="94" value="正例" style="shape=partialRectangle;html=1;whiteSpace=wrap;connectable=0;fillColor=none;top=0;left=0;bottom=0;right=0;overflow=hidden;" parent="93" vertex="1">
                    <mxGeometry width="60" height="40" as="geometry">
                        <mxRectangle width="60" height="40" as="alternateBounds"/>
                    </mxGeometry>
                </mxCell>
                <mxCell id="95" value="&lt;b&gt;&lt;span&gt;真正例（&lt;/span&gt;&lt;span lang=&quot;EN-US&quot;&gt;True Positive, TP&lt;/span&gt;&lt;span&gt;）&lt;/span&gt;&lt;/b&gt;" style="shape=partialRectangle;html=1;whiteSpace=wrap;connectable=0;fillColor=none;top=0;left=0;bottom=0;right=0;overflow=hidden;" parent="93" vertex="1">
                    <mxGeometry x="60" width="170" height="40" as="geometry">
                        <mxRectangle width="170" height="40" as="alternateBounds"/>
                    </mxGeometry>
                </mxCell>
                <mxCell id="96" value="&lt;span style=&quot;font-size:10.5pt;mso-bidi-font-size:11.0pt;&lt;br/&gt;font-family:宋体;mso-ascii-font-family:&amp;quot;Times New Roman&amp;quot;;mso-hansi-font-family:&lt;br/&gt;&amp;quot;Times New Roman&amp;quot;;mso-bidi-font-family:&amp;quot;Times New Roman&amp;quot;;mso-font-kerning:1.0pt;&lt;br/&gt;mso-ansi-language:EN-US;mso-fareast-language:ZH-CN;mso-bidi-language:AR-SA&quot;&gt;假负例（&lt;/span&gt;&lt;span style=&quot;font-size:10.5pt;mso-bidi-font-size:11.0pt;font-family:&amp;quot;Times New Roman&amp;quot;,serif;&lt;br/&gt;mso-fareast-font-family:宋体;mso-font-kerning:1.0pt;mso-ansi-language:EN-US;&lt;br/&gt;mso-fareast-language:ZH-CN;mso-bidi-language:AR-SA&quot; lang=&quot;EN-US&quot;&gt;False Negative, FN&lt;/span&gt;&lt;span style=&quot;font-size:10.5pt;mso-bidi-font-size:11.0pt;font-family:宋体;mso-ascii-font-family:&lt;br/&gt;&amp;quot;Times New Roman&amp;quot;;mso-hansi-font-family:&amp;quot;Times New Roman&amp;quot;;mso-bidi-font-family:&lt;br/&gt;&amp;quot;Times New Roman&amp;quot;;mso-font-kerning:1.0pt;mso-ansi-language:EN-US;mso-fareast-language:&lt;br/&gt;ZH-CN;mso-bidi-language:AR-SA&quot;&gt;）&lt;/span&gt;" style="shape=partialRectangle;html=1;whiteSpace=wrap;connectable=0;fillColor=none;top=0;left=0;bottom=0;right=0;overflow=hidden;pointerEvents=1;" parent="93" vertex="1">
                    <mxGeometry x="230" width="170" height="40" as="geometry">
                        <mxRectangle width="170" height="40" as="alternateBounds"/>
                    </mxGeometry>
                </mxCell>
                <mxCell id="100" style="shape=tableRow;horizontal=0;startSize=0;swimlaneHead=0;swimlaneBody=0;top=0;left=0;bottom=0;right=0;collapsible=0;dropTarget=0;fillColor=none;points=[[0,0.5],[1,0.5]];portConstraint=eastwest;" parent="84" vertex="1">
                    <mxGeometry y="80" width="399.9" height="40" as="geometry"/>
                </mxCell>
                <mxCell id="101" value="负例" style="shape=partialRectangle;html=1;whiteSpace=wrap;connectable=0;fillColor=none;top=0;left=0;bottom=0;right=0;overflow=hidden;" parent="100" vertex="1">
                    <mxGeometry width="60" height="40" as="geometry">
                        <mxRectangle width="60" height="40" as="alternateBounds"/>
                    </mxGeometry>
                </mxCell>
                <mxCell id="102" value="&lt;span style=&quot;font-size:10.5pt;mso-bidi-font-size:11.0pt;&lt;br/&gt;font-family:宋体;mso-ascii-font-family:&amp;quot;Times New Roman&amp;quot;;mso-hansi-font-family:&lt;br/&gt;&amp;quot;Times New Roman&amp;quot;;mso-bidi-font-family:&amp;quot;Times New Roman&amp;quot;;mso-font-kerning:1.0pt;&lt;br/&gt;mso-ansi-language:EN-US;mso-fareast-language:ZH-CN;mso-bidi-language:AR-SA&quot;&gt;假正例（&lt;/span&gt;&lt;span style=&quot;font-size:10.5pt;mso-bidi-font-size:11.0pt;font-family:&amp;quot;Times New Roman&amp;quot;,serif;&lt;br/&gt;mso-fareast-font-family:宋体;mso-font-kerning:1.0pt;mso-ansi-language:EN-US;&lt;br/&gt;mso-fareast-language:ZH-CN;mso-bidi-language:AR-SA&quot; lang=&quot;EN-US&quot;&gt;False Positive, FP&lt;/span&gt;&lt;span style=&quot;font-size:10.5pt;mso-bidi-font-size:11.0pt;font-family:宋体;mso-ascii-font-family:&lt;br/&gt;&amp;quot;Times New Roman&amp;quot;;mso-hansi-font-family:&amp;quot;Times New Roman&amp;quot;;mso-bidi-font-family:&lt;br/&gt;&amp;quot;Times New Roman&amp;quot;;mso-font-kerning:1.0pt;mso-ansi-language:EN-US;mso-fareast-language:&lt;br/&gt;ZH-CN;mso-bidi-language:AR-SA&quot;&gt;）&lt;/span&gt;" style="shape=partialRectangle;html=1;whiteSpace=wrap;connectable=0;fillColor=none;top=0;left=0;bottom=0;right=0;overflow=hidden;" parent="100" vertex="1">
                    <mxGeometry x="60" width="170" height="40" as="geometry">
                        <mxRectangle width="170" height="40" as="alternateBounds"/>
                    </mxGeometry>
                </mxCell>
                <mxCell id="103" value="&lt;b&gt;&lt;span&gt;真负例（&lt;/span&gt;&lt;span lang=&quot;EN-US&quot;&gt;True Negative, TN&lt;/span&gt;&lt;span&gt;）&lt;/span&gt;&lt;/b&gt;" style="shape=partialRectangle;html=1;whiteSpace=wrap;connectable=0;fillColor=none;top=0;left=0;bottom=0;right=0;overflow=hidden;pointerEvents=1;" parent="100" vertex="1">
                    <mxGeometry x="230" width="170" height="40" as="geometry">
                        <mxRectangle width="170" height="40" as="alternateBounds"/>
                    </mxGeometry>
                </mxCell>
                <mxCell id="109" value="" style="endArrow=none;html=1;fontSize=12;entryX=0;entryY=0;entryDx=0;entryDy=0;exitX=0.15;exitY=1;exitDx=0;exitDy=0;exitPerimeter=0;" parent="84" source="85" target="84" edge="1">
                    <mxGeometry width="50" height="50" relative="1" as="geometry">
                        <mxPoint x="152" y="90" as="sourcePoint"/>
                        <mxPoint x="202" y="40" as="targetPoint"/>
                    </mxGeometry>
                </mxCell>
                <mxCell id="106" value="&lt;font style=&quot;font-size: 12px;&quot;&gt;预测值&lt;/font&gt;" style="text;strokeColor=none;fillColor=none;html=1;fontSize=14;fontStyle=0;verticalAlign=middle;align=center;" parent="1" vertex="1">
                    <mxGeometry x="133" y="576" width="54" height="29" as="geometry"/>
                </mxCell>
                <mxCell id="107" value="&lt;font style=&quot;font-size: 12px;&quot;&gt;真实值&lt;/font&gt;" style="text;strokeColor=none;fillColor=none;html=1;fontSize=14;fontStyle=0;verticalAlign=middle;align=center;" parent="1" vertex="1">
                    <mxGeometry x="111" y="601" width="54" height="29" as="geometry"/>
                </mxCell>
                <mxCell id="110" value="" style="shape=table;html=1;whiteSpace=wrap;startSize=0;container=1;collapsible=0;childLayout=tableLayout;" vertex="1" parent="1">
                    <mxGeometry x="120" y="753" width="179.89999999999998" height="120" as="geometry"/>
                </mxCell>
                <mxCell id="111" value="" style="shape=tableRow;horizontal=0;startSize=0;swimlaneHead=0;swimlaneBody=0;top=0;left=0;bottom=0;right=0;collapsible=0;dropTarget=0;fillColor=none;points=[[0,0.5],[1,0.5]];portConstraint=eastwest;" vertex="1" parent="110">
                    <mxGeometry width="179.89999999999998" height="40" as="geometry"/>
                </mxCell>
                <mxCell id="112" value="" style="shape=partialRectangle;html=1;whiteSpace=wrap;connectable=0;fillColor=none;top=0;left=0;bottom=0;right=0;overflow=hidden;" vertex="1" parent="111">
                    <mxGeometry width="60" height="40" as="geometry">
                        <mxRectangle width="60" height="40" as="alternateBounds"/>
                    </mxGeometry>
                </mxCell>
                <mxCell id="113" value="猫" style="shape=partialRectangle;html=1;whiteSpace=wrap;connectable=0;fillColor=none;top=0;left=0;bottom=0;right=0;overflow=hidden;" vertex="1" parent="111">
                    <mxGeometry x="60" width="60" height="40" as="geometry">
                        <mxRectangle width="60" height="40" as="alternateBounds"/>
                    </mxGeometry>
                </mxCell>
                <mxCell id="114" value="狗" style="shape=partialRectangle;html=1;whiteSpace=wrap;connectable=0;fillColor=none;top=0;left=0;bottom=0;right=0;overflow=hidden;" vertex="1" parent="111">
                    <mxGeometry x="120" width="60" height="40" as="geometry">
                        <mxRectangle width="60" height="40" as="alternateBounds"/>
                    </mxGeometry>
                </mxCell>
                <mxCell id="115" value="" style="shape=tableRow;horizontal=0;startSize=0;swimlaneHead=0;swimlaneBody=0;top=0;left=0;bottom=0;right=0;collapsible=0;dropTarget=0;fillColor=none;points=[[0,0.5],[1,0.5]];portConstraint=eastwest;" vertex="1" parent="110">
                    <mxGeometry y="40" width="179.89999999999998" height="40" as="geometry"/>
                </mxCell>
                <mxCell id="116" value="猫" style="shape=partialRectangle;html=1;whiteSpace=wrap;connectable=0;fillColor=none;top=0;left=0;bottom=0;right=0;overflow=hidden;" vertex="1" parent="115">
                    <mxGeometry width="60" height="40" as="geometry">
                        <mxRectangle width="60" height="40" as="alternateBounds"/>
                    </mxGeometry>
                </mxCell>
                <mxCell id="117" value="&lt;b&gt;5&lt;/b&gt;" style="shape=partialRectangle;html=1;whiteSpace=wrap;connectable=0;fillColor=none;top=0;left=0;bottom=0;right=0;overflow=hidden;" vertex="1" parent="115">
                    <mxGeometry x="60" width="60" height="40" as="geometry">
                        <mxRectangle width="60" height="40" as="alternateBounds"/>
                    </mxGeometry>
                </mxCell>
                <mxCell id="118" value="1" style="shape=partialRectangle;html=1;whiteSpace=wrap;connectable=0;fillColor=none;top=0;left=0;bottom=0;right=0;overflow=hidden;pointerEvents=1;" vertex="1" parent="115">
                    <mxGeometry x="120" width="60" height="40" as="geometry">
                        <mxRectangle width="60" height="40" as="alternateBounds"/>
                    </mxGeometry>
                </mxCell>
                <mxCell id="119" style="shape=tableRow;horizontal=0;startSize=0;swimlaneHead=0;swimlaneBody=0;top=0;left=0;bottom=0;right=0;collapsible=0;dropTarget=0;fillColor=none;points=[[0,0.5],[1,0.5]];portConstraint=eastwest;" vertex="1" parent="110">
                    <mxGeometry y="80" width="179.89999999999998" height="40" as="geometry"/>
                </mxCell>
                <mxCell id="120" value="狗" style="shape=partialRectangle;html=1;whiteSpace=wrap;connectable=0;fillColor=none;top=0;left=0;bottom=0;right=0;overflow=hidden;" vertex="1" parent="119">
                    <mxGeometry width="60" height="40" as="geometry">
                        <mxRectangle width="60" height="40" as="alternateBounds"/>
                    </mxGeometry>
                </mxCell>
                <mxCell id="121" value="2" style="shape=partialRectangle;html=1;whiteSpace=wrap;connectable=0;fillColor=none;top=0;left=0;bottom=0;right=0;overflow=hidden;" vertex="1" parent="119">
                    <mxGeometry x="60" width="60" height="40" as="geometry">
                        <mxRectangle width="60" height="40" as="alternateBounds"/>
                    </mxGeometry>
                </mxCell>
                <mxCell id="122" value="&lt;b&gt;2&lt;/b&gt;" style="shape=partialRectangle;html=1;whiteSpace=wrap;connectable=0;fillColor=none;top=0;left=0;bottom=0;right=0;overflow=hidden;pointerEvents=1;" vertex="1" parent="119">
                    <mxGeometry x="120" width="60" height="40" as="geometry">
                        <mxRectangle width="60" height="40" as="alternateBounds"/>
                    </mxGeometry>
                </mxCell>
                <mxCell id="123" value="" style="endArrow=none;html=1;fontSize=12;entryX=0;entryY=0;entryDx=0;entryDy=0;exitX=0.334;exitY=0.001;exitDx=0;exitDy=0;exitPerimeter=0;" edge="1" parent="110" source="115" target="110">
                    <mxGeometry width="50" height="50" relative="1" as="geometry">
                        <mxPoint x="60" y="39" as="sourcePoint"/>
                        <mxPoint x="202" y="40" as="targetPoint"/>
                    </mxGeometry>
                </mxCell>
                <mxCell id="124" value="&lt;font style=&quot;font-size: 12px;&quot;&gt;预测值&lt;/font&gt;" style="text;strokeColor=none;fillColor=none;html=1;fontSize=14;fontStyle=0;verticalAlign=middle;align=center;" vertex="1" parent="1">
                    <mxGeometry x="133" y="745" width="54" height="29" as="geometry"/>
                </mxCell>
                <mxCell id="125" value="&lt;font style=&quot;font-size: 12px;&quot;&gt;真实值&lt;/font&gt;" style="text;strokeColor=none;fillColor=none;html=1;fontSize=14;fontStyle=0;verticalAlign=middle;align=center;" vertex="1" parent="1">
                    <mxGeometry x="111" y="770" width="54" height="29" as="geometry"/>
                </mxCell>
                <mxCell id="142" value="" style="shape=table;html=1;whiteSpace=wrap;startSize=0;container=1;collapsible=0;childLayout=tableLayout;fillColor=none;" vertex="1" parent="1">
                    <mxGeometry x="120" y="921" width="399.9" height="120" as="geometry"/>
                </mxCell>
                <mxCell id="143" value="" style="shape=tableRow;horizontal=0;startSize=0;swimlaneHead=0;swimlaneBody=0;top=0;left=0;bottom=0;right=0;collapsible=0;dropTarget=0;fillColor=none;points=[[0,0.5],[1,0.5]];portConstraint=eastwest;" vertex="1" parent="142">
                    <mxGeometry width="399.9" height="40" as="geometry"/>
                </mxCell>
                <mxCell id="144" value="" style="shape=partialRectangle;html=1;whiteSpace=wrap;connectable=0;fillColor=none;top=0;left=0;bottom=0;right=0;overflow=hidden;" vertex="1" parent="143">
                    <mxGeometry width="60" height="40" as="geometry">
                        <mxRectangle width="60" height="40" as="alternateBounds"/>
                    </mxGeometry>
                </mxCell>
                <mxCell id="145" value="正例" style="shape=partialRectangle;html=1;whiteSpace=wrap;connectable=0;fillColor=none;top=0;left=0;bottom=0;right=0;overflow=hidden;" vertex="1" parent="143">
                    <mxGeometry x="60" width="170" height="40" as="geometry">
                        <mxRectangle width="170" height="40" as="alternateBounds"/>
                    </mxGeometry>
                </mxCell>
                <mxCell id="146" value="负例" style="shape=partialRectangle;html=1;whiteSpace=wrap;connectable=0;fillColor=none;top=0;left=0;bottom=0;right=0;overflow=hidden;" vertex="1" parent="143">
                    <mxGeometry x="230" width="170" height="40" as="geometry">
                        <mxRectangle width="170" height="40" as="alternateBounds"/>
                    </mxGeometry>
                </mxCell>
                <mxCell id="147" value="" style="shape=tableRow;horizontal=0;startSize=0;swimlaneHead=0;swimlaneBody=0;top=0;left=0;bottom=0;right=0;collapsible=0;dropTarget=0;fillColor=none;points=[[0,0.5],[1,0.5]];portConstraint=eastwest;" vertex="1" parent="142">
                    <mxGeometry y="40" width="399.9" height="40" as="geometry"/>
                </mxCell>
                <mxCell id="148" value="正例" style="shape=partialRectangle;html=1;whiteSpace=wrap;connectable=0;fillColor=none;top=0;left=0;bottom=0;right=0;overflow=hidden;" vertex="1" parent="147">
                    <mxGeometry width="60" height="40" as="geometry">
                        <mxRectangle width="60" height="40" as="alternateBounds"/>
                    </mxGeometry>
                </mxCell>
                <mxCell id="149" value="&lt;b&gt;&lt;span&gt;真正例（&lt;/span&gt;&lt;span lang=&quot;EN-US&quot;&gt;True Positive, TP&lt;/span&gt;&lt;span&gt;）&lt;/span&gt;&lt;/b&gt;" style="shape=partialRectangle;html=1;whiteSpace=wrap;connectable=0;fillColor=none;top=0;left=0;bottom=0;right=0;overflow=hidden;" vertex="1" parent="147">
                    <mxGeometry x="60" width="170" height="40" as="geometry">
                        <mxRectangle width="170" height="40" as="alternateBounds"/>
                    </mxGeometry>
                </mxCell>
                <mxCell id="150" value="&lt;span style=&quot;font-size:10.5pt;mso-bidi-font-size:11.0pt;&lt;br/&gt;font-family:宋体;mso-ascii-font-family:&amp;quot;Times New Roman&amp;quot;;mso-hansi-font-family:&lt;br/&gt;&amp;quot;Times New Roman&amp;quot;;mso-bidi-font-family:&amp;quot;Times New Roman&amp;quot;;mso-font-kerning:1.0pt;&lt;br/&gt;mso-ansi-language:EN-US;mso-fareast-language:ZH-CN;mso-bidi-language:AR-SA&quot;&gt;假负例（&lt;/span&gt;&lt;span style=&quot;font-size:10.5pt;mso-bidi-font-size:11.0pt;font-family:&amp;quot;Times New Roman&amp;quot;,serif;&lt;br/&gt;mso-fareast-font-family:宋体;mso-font-kerning:1.0pt;mso-ansi-language:EN-US;&lt;br/&gt;mso-fareast-language:ZH-CN;mso-bidi-language:AR-SA&quot; lang=&quot;EN-US&quot;&gt;False Negative, FN&lt;/span&gt;&lt;span style=&quot;font-size:10.5pt;mso-bidi-font-size:11.0pt;font-family:宋体;mso-ascii-font-family:&lt;br/&gt;&amp;quot;Times New Roman&amp;quot;;mso-hansi-font-family:&amp;quot;Times New Roman&amp;quot;;mso-bidi-font-family:&lt;br/&gt;&amp;quot;Times New Roman&amp;quot;;mso-font-kerning:1.0pt;mso-ansi-language:EN-US;mso-fareast-language:&lt;br/&gt;ZH-CN;mso-bidi-language:AR-SA&quot;&gt;）&lt;/span&gt;" style="shape=partialRectangle;html=1;whiteSpace=wrap;connectable=0;fillColor=none;top=0;left=0;bottom=0;right=0;overflow=hidden;pointerEvents=1;" vertex="1" parent="147">
                    <mxGeometry x="230" width="170" height="40" as="geometry">
                        <mxRectangle width="170" height="40" as="alternateBounds"/>
                    </mxGeometry>
                </mxCell>
                <mxCell id="151" style="shape=tableRow;horizontal=0;startSize=0;swimlaneHead=0;swimlaneBody=0;top=0;left=0;bottom=0;right=0;collapsible=0;dropTarget=0;fillColor=none;points=[[0,0.5],[1,0.5]];portConstraint=eastwest;" vertex="1" parent="142">
                    <mxGeometry y="80" width="399.9" height="40" as="geometry"/>
                </mxCell>
                <mxCell id="152" value="负例" style="shape=partialRectangle;html=1;whiteSpace=wrap;connectable=0;fillColor=none;top=0;left=0;bottom=0;right=0;overflow=hidden;" vertex="1" parent="151">
                    <mxGeometry width="60" height="40" as="geometry">
                        <mxRectangle width="60" height="40" as="alternateBounds"/>
                    </mxGeometry>
                </mxCell>
                <mxCell id="153" value="&lt;span style=&quot;font-size:10.5pt;mso-bidi-font-size:11.0pt;&lt;br/&gt;font-family:宋体;mso-ascii-font-family:&amp;quot;Times New Roman&amp;quot;;mso-hansi-font-family:&lt;br/&gt;&amp;quot;Times New Roman&amp;quot;;mso-bidi-font-family:&amp;quot;Times New Roman&amp;quot;;mso-font-kerning:1.0pt;&lt;br/&gt;mso-ansi-language:EN-US;mso-fareast-language:ZH-CN;mso-bidi-language:AR-SA&quot;&gt;假正例（&lt;/span&gt;&lt;span style=&quot;font-size:10.5pt;mso-bidi-font-size:11.0pt;font-family:&amp;quot;Times New Roman&amp;quot;,serif;&lt;br/&gt;mso-fareast-font-family:宋体;mso-font-kerning:1.0pt;mso-ansi-language:EN-US;&lt;br/&gt;mso-fareast-language:ZH-CN;mso-bidi-language:AR-SA&quot; lang=&quot;EN-US&quot;&gt;False Positive, FP&lt;/span&gt;&lt;span style=&quot;font-size:10.5pt;mso-bidi-font-size:11.0pt;font-family:宋体;mso-ascii-font-family:&lt;br/&gt;&amp;quot;Times New Roman&amp;quot;;mso-hansi-font-family:&amp;quot;Times New Roman&amp;quot;;mso-bidi-font-family:&lt;br/&gt;&amp;quot;Times New Roman&amp;quot;;mso-font-kerning:1.0pt;mso-ansi-language:EN-US;mso-fareast-language:&lt;br/&gt;ZH-CN;mso-bidi-language:AR-SA&quot;&gt;）&lt;/span&gt;" style="shape=partialRectangle;html=1;whiteSpace=wrap;connectable=0;fillColor=none;top=0;left=0;bottom=0;right=0;overflow=hidden;" vertex="1" parent="151">
                    <mxGeometry x="60" width="170" height="40" as="geometry">
                        <mxRectangle width="170" height="40" as="alternateBounds"/>
                    </mxGeometry>
                </mxCell>
                <mxCell id="154" value="&lt;b&gt;&lt;span&gt;真负例（&lt;/span&gt;&lt;span lang=&quot;EN-US&quot;&gt;True Negative, TN&lt;/span&gt;&lt;span&gt;）&lt;/span&gt;&lt;/b&gt;" style="shape=partialRectangle;html=1;whiteSpace=wrap;connectable=0;fillColor=none;top=0;left=0;bottom=0;right=0;overflow=hidden;pointerEvents=1;" vertex="1" parent="151">
                    <mxGeometry x="230" width="170" height="40" as="geometry">
                        <mxRectangle width="170" height="40" as="alternateBounds"/>
                    </mxGeometry>
                </mxCell>
                <mxCell id="155" value="" style="endArrow=none;html=1;fontSize=12;entryX=0;entryY=0;entryDx=0;entryDy=0;exitX=0.15;exitY=1;exitDx=0;exitDy=0;exitPerimeter=0;" edge="1" parent="142" source="143" target="142">
                    <mxGeometry width="50" height="50" relative="1" as="geometry">
                        <mxPoint x="152" y="90" as="sourcePoint"/>
                        <mxPoint x="202" y="40" as="targetPoint"/>
                    </mxGeometry>
                </mxCell>
                <mxCell id="156" value="&lt;font style=&quot;font-size: 12px;&quot;&gt;预测值&lt;/font&gt;" style="text;strokeColor=none;fillColor=none;html=1;fontSize=14;fontStyle=0;verticalAlign=middle;align=center;" vertex="1" parent="1">
                    <mxGeometry x="133" y="913" width="54" height="29" as="geometry"/>
                </mxCell>
                <mxCell id="157" value="&lt;font style=&quot;font-size: 12px;&quot;&gt;真实值&lt;/font&gt;" style="text;strokeColor=none;fillColor=none;html=1;fontSize=14;fontStyle=0;verticalAlign=middle;align=center;" vertex="1" parent="1">
                    <mxGeometry x="111" y="938" width="54" height="29" as="geometry"/>
                </mxCell>
                <mxCell id="180" value="&lt;font style=&quot;font-size: 12px;&quot;&gt;预测值&lt;/font&gt;" style="text;strokeColor=none;fillColor=none;html=1;fontSize=14;fontStyle=0;verticalAlign=middle;align=center;" vertex="1" parent="1">
                    <mxGeometry x="136" y="1088" width="54" height="29" as="geometry"/>
                </mxCell>
                <mxCell id="181" value="&lt;font style=&quot;font-size: 12px;&quot;&gt;真实值&lt;/font&gt;" style="text;strokeColor=none;fillColor=none;html=1;fontSize=14;fontStyle=0;verticalAlign=middle;align=center;" vertex="1" parent="1">
                    <mxGeometry x="114" y="1113" width="54" height="29" as="geometry"/>
                </mxCell>
                <mxCell id="216" value="&lt;font style=&quot;font-size: 12px;&quot;&gt;预测值&lt;/font&gt;" style="text;strokeColor=none;fillColor=none;html=1;fontSize=14;fontStyle=0;verticalAlign=middle;align=center;" vertex="1" parent="1">
                    <mxGeometry x="138" y="1294" width="54" height="29" as="geometry"/>
                </mxCell>
                <mxCell id="217" value="&lt;font style=&quot;font-size: 12px;&quot;&gt;真实值&lt;/font&gt;" style="text;strokeColor=none;fillColor=none;html=1;fontSize=14;fontStyle=0;verticalAlign=middle;align=center;" vertex="1" parent="1">
                    <mxGeometry x="116" y="1319" width="54" height="29" as="geometry"/>
                </mxCell>
                <mxCell id="235" value="" style="shape=image;verticalLabelPosition=bottom;labelBackgroundColor=default;verticalAlign=top;aspect=fixed;imageAspect=0;image=data:image/png,iVBORw0KGgoAAAANSUhEUgAAA0AAAAMeCAIAAAC7hfOSAAAgAElEQVR4Aezdf5RV9X3v/8/M4AwTR0GCEgi9OjJCSyxK6NWo94Zl0mqTVJOsKDExalfUWNCQVP8I2iyTlDYIGCj4A63BoImm/ghoY9QmRhbR2vojmrkIGo1GnYM4FC3+wDgMcz7XYdPteZ+ZObPPmXPOfu29n64uv+dzZp993vvx+uR+Xwvcs53nHwQQQAABBBBAAIFECbhETcuwCCCAAAIIIIAAAp4CxyZAAAEEEEAAAQQSJkCBS1hgjIsAAggggAACCFDg2AMIIIAAAggggEDCBChwCQuMcRFAAAEEEEAAAQocewABBBBAAAEEEEiYAAUuYYExLgIIIIAAAgggQIFjDyCAAAIIIIAAAgkToMAlLDDGRQABBBBAAAEEKHDsAQQQSL/A+vXr3YB/Ro8e/aEPfWjBggXbtm0rInjmmWfOPffcQw89dJ999mlpaZk2bdqFF1748ssvFx0WLPv6+m6//fbPfe5zBx98cHNzc1NT0+TJk0855ZR/+7d/G/R43kQAAQRGLkCBG7khZ0AAAXWBQQtc2OgmTJiwadOm8BruuOOO0aNHhz8NXxxwwAEPPfRQeFjwIpfLHXvsseExRS8uuOCCouNZIoAAAlURoMBVhZGTIICAtEBY4BYvXnzPnn/uvvvuNWvWHH/88UHl+vCHP5zP5733v/3tb4P21tTUNHfu3J/85Ce33HLLF77wheCwgw46aPv27eGlvvrqqx0dHcGPPvCBD1xyySW33377HXfccckll4wdO9Y5N2vWrLfffjs8nhcIIIBAtQQocNWS5DwIIKArEBa49evXF07Z19d34oknBg3sN7/5jff+9NNPD5Y/+tGPCo9cuHBh8P43v/nN8P0vf/nLwZuf+MQnXn/99fB97/2LL774pS99qejNwgN4jQACCIxEgAI3Ej0+iwACyRAYqsB57//lX/4lKGE333zzH/7wh9bWVufcMcccU3Rhvb29f/RHf+Sca29vD360ZcuWpqYm59yhhx66c+fOouNZIoAAAjUVoMDVlJeTI4CAhECJAnfPPfcEBe6mm2568MEHg9ff+973Bs59wQUXBD/N5XLe+2uvvTZYXnvttQMP5h0EEECgpgIUuJrycnIEEJAQKFHgLrnkkqCHPfzww6tXrw5e//KXvxw49/e///3gp/fff7/3/txzzw2WL7zwwsCDeQcBBBCoqQAFrqa8nBwBBCQEBha4fD6/bdu2FStW7LPPPs65gw8+ePfu3YsXLw46WeFNqeEF/OxnPwt+esstt3jvP/GJTzjn9tlnn+Duh/AwXiCAAAJ1EKDA1QGZr0AAgZgFwgIXNLCif48aNSr4nW3f/va3gx89//zzAye+//77g5+uWbPGex/cwbr//vsPPJJ3EEAAgVoLUOBqLcz5EUAgfoESBW7atGkPPPBAMOJ3v/vdoKI9/fTTA4e+9957g5/efPPN4Z/ANTY27t69e+DBvIMAAgjUVIACV1NeTo4AAhICYYELfw/cXXfdtf/++zvnPv7xj4cjXnPNNUFF+9WvfhW+Gb648cYbg5/ee++93vuzzz67RNsLP8ULBBBAoBYCFLhaqHJOBBDQEggLXOHvgfvGN74RNLDwT+B++ctfBu9cccUVAy/gwgsvDH763HPPee9XrFgRLJcvXz7wYN5BAAEEaipAgaspLydHAAEJgUEL3Msvv9zS0lL4h3A7duwI7mk4/vjji+bu6+ubMmWKc27ChAnBXQvPPvtsUOAmT57ML+wt4mKJAAK1FqDA1VqY8yOAQPwCgxa4wl8FEv7J3Gc+85mglt1+++2Fc19++eXB+1//+tfD9z/96U8Hb86ePfuVV14J3+cFAgggUGsBClythTk/AgjELzBUgXvmmWcaGxudc7Nnzw6m7OzsDP4QbtSoUV/96lfXrl17yy23nHHGGUFRGzt27NatW8Preemllw466KDgR21tbeeee+71119/1113rV27dunSpSeddNLVV18dHswLBBBAoIoCFLgqYnIqBBAQFRiqwHnvTznllKCBBb+e13t/8803Nzc3B28W/nu//fYb+At+n3766RkzZhQeVvj6U5/6lKgIYyGAQMIFKHAJD5DxEUAggkCJAvfYY48Fleu4444Lz7R58+ZzzjnnkEMOaWpq2meffaZNmzZ//vwXX3wxPKDwxe7du2+55ZY5c+ZMmTJl9OjRDQ0N+++//8yZM88777z77ruv8EheI4AAAtUSoMBVS5LzIIAAAggggAACdRKgwNUJmq9BAAEEEEAAAQSqJUCBq5Yk50EAAQQQQAABBOokQIGrEzRfgwACCCCAAAIIVEuAAlctSc6DAAIIIIAAAgjUSYACVydovgYBBBBAAAEEEKiWQMwF7r//+7/XrFnzyU9+MvjNmT/4wQ8qu7Dt27fPmzfvgx/8YGNj44EHHnjGGWcMdcN/ZefnUwgggAACCCCAgI5AnAUul8sV/bbMygrcjh07pk6dGvwmp/e9733Bi4MOOogOp7PPmAQBBBBAAAEEqigQZ4H7/e9/f8ABB5x55pn/+q//etpppznnKitwF110kXNu3LhxDz74oPd+06ZNhx56qHPu1FNPraIUp0IAAQQQQAABBEQE4ixwvb29u3btCiDOOuusygpcX1/f+PHjnXNXXHFFaPrTn/7UOdfU1PTaa6+Fb/ICAQQQQAABBBBIh0CcBa5QsOICt3nz5uDvTHO5XHjCXbt2jR492jl39913h2/yAgEEEEAAAQQQSIdA4gtc8Idt+++/v/f+vPPOa2lpOe+887z3weOlr7zyyhI5TR/wT1NTU1tb24C3eQMBBBBAAAEEEOgXaGtrmzBhQol2UZ8fJb7A/fCHP3TOHXLIId77lpYW51xLS4v3fvbs2e/+LerChQtLOA7ciY2NjS0tLQPf5x0EEEAAAQQQyKjA1KnTm5unOze9oWH6//pfLS0tbW1tJdpFfX6U+AJ3ww03OOfa29u99/Pnz29paTn//PO998cff7xz7jvf+U5ZjsHWLOsjHIwAAggggAACaRZ4803/0Y965/r/b+lSkaqQ+AK3du3a4BbUoq0zc+ZM59zy5cuL3i+9FEml9JD8FAEEEEAAAQTqKhB0uMsu896LVIXEF7jHH388uImhu7s7zHL37t377befc+6OO+4I34zyQiSVKKNyDAIIIIAAAgjUT+B/fm+GSFVIfIHr7e0dM2aMc+66664LU/z5z3/+7t+fNjQ0vPLKK+GbUV6IpBJlVI5BAAEEEEAAgVoJdHX5X/960JOLVIVkFLh8Pj9nzpzW1tZB/0r0/PPPd84deOCBDz/8sPf+6aefPuyww5xzn/zkJwelL/GmSColJuRHCCCAAAIIIFBbga4u39Hhx471jz468ItEqkKcBe6uu+4a8z//NDU1BTeQBm/MnTu3kGzr1q3B35NOmzat8P3g9fbt29vb24MDwkdpjRs37tlnnx14cOl3RFIpPSQ/RQABBBBAAIFaCQTtLbhlYexYP+Cv8kSqQpwFbt26dUHrGvjvs846qzCYfD5/2mmntba2rlixovD98HV3d/d55503ceLEhoaG8ePHf/GLX3zuuefCn0Z/IZJK9IE5EgEEEEAAAQSqJlDY3pzze+5aKDq5SFWIs8AViSgsRVJRoGAGBBBAAAEEsiUQob1xF6rolqDAiQbDWAgggAACCNRUIFp7o8DVNITKT06Bq9yOTyKAAAIIIJBQgcjtjQInmjAFTjQYxkIAAQQQQKBGAuW0NwpcjUIY6WkpcCMV5PMIIIAAAggkSGD3bj9jxt7HZA1x10LR1YhUBW5iMLmIpGJmYoEAAggggAACtRO47z7f2trf4Qa753Tg14pUBQqciUYkFTMTCwQQQAABBBCoqcB99/nLL4/4DSJVgQJn8hJJxczEAgEEEEAAAQRkBESqAgXO7AiRVMxMLBBAAAEEEECgigK5nJ8/3/f0VHZKkapAgTPxiaRiZmKBAAIIIIAAAtUSyOX6n3PqnP/0pyvrcCJVgQJndoRIKmYmFggggAACCCBQFYGwvQWPOv3JTyo4q0hVoMCZ7ERSMTOxQAABBBBAAIGRCxS1t8WLKzulSFWgwJn4RFIxM7FAAAEEEEAAgREKVKm98Yt8R5hDrT5OgauVLOdFAAEEEEAgLoHqtTcKXFwZDvO9FLhhgPgxAggggAACyRKoanujwImGT4ETDYaxEEAAAQQQqECg2u2NAldBCPX4CAWuHsp8BwIIIIAAAvURWLDgveecVnrXQtGkIlWBmxhMLiKpmJlYIIAAAggggEBlArt3+y99qb/DVam98SdwleVQ809R4GpOzBcggAACCCBQT4Hdu/1dd1XxC0WqAn8CZzIVScXMxAIBBBBAAAEEogv09kY/toIjRaoCBc5kJ5KKmYkFAggggAACCEQUyOX89On+jjsiHl7BYSJVgQJnshNJxczEAgEEEEAAAQSiCIT3nI4aVbsOJ1IVKHBmR4ikYmZigQACCCCAAALDCoTtLXjO6dKlw36isgNEqgIFzsQnkoqZiQUCCCCAAAIIlBYoam/Vu+d04NeKVAUKnIlGJBUzEwsEEEAAAQQQKCFQx/bGrxEpkUOcP6LAxanPdyOAAAIIIFCuQH3bGwWu3HzqdDwFrk7QfA0CCCCAAAIjF6h7e6PAjTy0mpyBAlcTVk6KAAIIIIBA1QXiaG8UuKrHWJ0TUuCq48hZEEAAAQQQqLXA5s1+woS9jzqt5V0LRdchUhW4icHkIpKKmYkFAggggAACCAwqsGlTf4erY3vjT+AGzSH+Nylw8WfABAgggAACCEQXePXV6MdW5UiRqsCfwJk0RVIxM7FAAAEEEEAAgUAgl/OvvRYvhkhVoMCZbSCSipmJBQIIIIAAAgh477u6fEeHnzUr3g4nUhUocOZ/EyKpmJlYIIAAAggggEDQ3oLHZM2a5d95Jy4SkapAgTMbQCQVMxMLBBBAAAEEMi5Q2N6c85ddFqOHSFWgwJk9IJKKmYkFAggggAACWRZQam/chSq6EylwosEwFgIIIIBANgXE2hsFTnQbUuBEg2EsBBBAAIEMCui1Nwqc6DakwIkGw1gIIIAAAlkTkGxvFDjRbUiBEw2GsRBAAAEEMiXw+uv9vzEkuOc07rsWiuBFqgI3MZhcRFIxM7FAAAEEEEAggwLf/vbeAhfrPacD4UWqAgXORCOSipmJBQIIIIAAAtkU+M534v2NIYOqi1QFCpxJRyQVMxMLBBBAAAEEEJAREKkKFDizI0RSMTOxQAABBBBAIAsCXV1+9Wr9CxWpChQ4s1VEUjEzsUAAAQQQQCD1AuE9p8uWiV+rSFWgwJl9IpKKmYkFAggggAAC6RYI21tw2+mjjypfrkhVoMCZTSKSipmJBQIIIIAAAikWKGpvYvecDoQXqQoUOBONSCpmJhYIIIAAAgikVSBp7Y1f5Cu6EylwosEwFgIIIIBA+gQS2N4ocKLbkAInGgxjIYAAAgikTCCZ7Y0CJ7oNKXCiwTAWAggggECaBBLb3ihwotuQAicaDGMhgAACCKRJ4NOf1nzOaRRjkarATQwmLJFUzEwsEEAAAQQQSJlAd7efPr2/w8nfczoQXqQqUOBMNCKpmJlYIIAAAgggkD6B7m5/3XVJvCyRqkCBM5tHJBUzEwsEEEAAAQQQkBEQqQoUOLMjRFIxM7FAAAEEEEAg6QJdXf5jH/O/+13Sr4ObGEQTpMCJBsNYCCCAAALJFQjvOf2jP0pBhxOpCvwJnPkfhEgqZiYWCCCAAAIIJFcgbG/Bc06vuiq5lxJMLlIVKHBmI4mkYmZigQACCCCAQEIFitpbAu85HQgvUhUocCYakVTMTCwQQAABBBBIokAa2xv/DZzoTqTAiQbDWAgggAACyRJIaXujwIluQwqcaDCMhQACCCCQIIH0tjcKnOg2pMCJBsNYCCCAAAJJEUh1e6PAiW5DCpxoMIyFAAIIIJAUgbVrfWPj3kedpuKuhSJ4karATQwmF5FUzEwsEEAAAQQQSJbATTf1d7g0tjf+BE50J1LgRINhLAQQQACBZAls3pyseaNPK1IV+BM4E5lIKmYmFggggAACCIgLbN/u+/rEZ6zWeCJVgQJnAhVJxczEAgEEEEAAAWWB4K6Fv/mbjHQ4kapAgTP/mxBJxczEAgEEEEAAAVmBwntO/+ZvfD4vO2m1BhOpChQ4E6hIKmYmFggggAACCGgKFLY359J610KRvUhVoMCZXERSMTOxQAABBBBAQFAgk+2Nu1AFd2L/SBQ40WAYCwEEEEBASiCr7U2nKvAncOZ/EBQ4w8ECAQQQQACBgQIZbm8UuIHbQeIdCpxEDAyBAAIIICArkO32RoET3ZgUONFgGAsBBBBAQEHg5Zd9R8fex2Rl5q6FIniRqsBfoZpcRFIxM7FAAAEEEEBARODtt/1f/EWKn3MahVmkKlDgTFgiqZiZWCCAAAIIIKAjEHS4lD7nNAqzSFWgwJmwRFIxM7FAAAEEEEBASqC3V2qcOg8jUhUocCZ3kVTMTCwQQAABBBCIUaCry//nf8b4/WpfLVIVKHBmY4ikYmZigQACCCCAQFwCwT2nbW3+3/89rhHUvlekKlDgzMYQScXMxAIBBBBAAIFYBAp/Y0hbm9+yJZYp1L5UpCpQ4MzGEEnFzMQCAQQQQACB+gsUtres/saQQdVFqgIFzqQjkoqZiQUCCCCAAAJ1FqC9DQ0uUhUocCYikVTMTCwQQAABBBCopwDtraS2SFWgwJmURFIxM7FAAAEEEECgbgK0t+GoRaoCBc4EJZKKmYkFAggggAAC9RGgvUVwFqkKFDiTlUgqZiYWCCCAAAII1EGgr8/PnJnx55xGYRapChQ4E5ZIKmYmFggggAACCNRH4IEHfFtbf4fL8JOyhpUWqQoUOJOUSCpmJhYIIIAAAgjUTeCBB/z3vle3b0viF4lUBQqc2TwiqZiZWCCAAAIIIICAjIBIVaDAmR0hkoqZiQUCCCCAAAI1Eujq8l/5iv/DH2p0+lSeVqQqUODM7hJJxczEAgEEEEAAgVoIhPecnngiHS46sEhVoMCZyERSMTOxQAABBBBAoOoCYXtzrv+uhVtuqfo3pPWEIlWBAmc2mEgqZiYWCCCAAAIIVFegqL0tXlzd06f7bCJVgQJntplIKmYmFggggAACCFRRgPY2MkyRqkCBMzGKpGJmYoEAAggggEC1BGhvI5YUqQoUOJOkSCpmJhYIIIAAAghURYD2Vg1GkapAgTNhiqRiZmKBAAIIIIDAyAVobyM33HMGkapAgTN5iqRiZmKBAAIIIIDAyAUuvfS955xy18IIPEWqAgXOZCiSipmJBQIIIIAAAiMX6Ovz557b3+FobyPDFKkKFDgTo0gqZiYWCCCAAAIIVEWgr8/fe29VzpTlk4hUBQqc2YQiqZiZWCCAAAIIIFCZQE9PZZ/jUyUERKoCBc5kJJKKmYkFAggggAACFQjkcv6P/9j/y79U8FE+UkJApCpQ4ExGIqmYmVgggAACCCBQrkAu5zs6+v+Lt8ZGOly5eKWPF6kKFDgTk0gqZiYWCCCAAAIIlCUQtrfgOadLlpT1aQ4uLSBSFShwJiaRVMxMLBBAAAEEEIguUNTeuOc0Ol20I0WqAgXOxCWSipmJBQIIIIAAAhEFaG8RoUZwmEhVoMCZDEVSMTOxQAABBBBAIIoA7S2K0oiPEakKFDiTpEgqZiYWCCCAAAIIDCtAexuWqEoHiFQFCpzJUyQVMxMLBBBAAAEESgvQ3kr7VPWnIlWBAmdSFUnFzMQCAQQQQACB0gLPPus/+MG9jzrlroXSViP+qUhVoMCZJEVSMTOxQAABBBBAYFiBoMPR3oaFGvEBIlWBAmeSFEnFzMQCAQQQQACBKAL//d9RjuKYEQqIVAUKnMlRJBUzEwsEEEAAAQQGCuRyftu2gW/zTq0FRKoCBc4ELZKKmYkFAggggAACRQLBXQuHH06HK4Kpw1KkKlDgTNYiqZiZWCCAAAIIIFAoUHjP6eGH+7ffLvwhr2stIFIVKHAmaJFUzEwsEEAAAQQQCAUK25tznrsWQpl6vRCpChQ4E7hIKmYmFggggAACCAQCtDeBnSBSFShwZi+IpGJmYoEAAggggID3nvamsQ1EqgIFzmwHkVTMTCwQQAABBBCgvcnsAZGqQIEzO0IkFTMTCwQQQACBjAvQ3pQ2gEhVoMCZTSGSipmJBQIIIIBAlgXeessfdtjex2Rx14LAThCpChQ4sxdEUjEzsUAAAQQQyLjA0qU851RnC4hUBQqc2RIiqZiZWCCAAAIIILB0Kb8xRGQXiFSFmAvcunXrjjvuuNbW1ubm5pkzZ65evbqCeO69994TTjjhgAMOaGhoOOCAA0444YR77723gvN470VSqWx4PoUAAggggAACtRYQqQpxFrhVq1a5Pf80NTU1NzcHrxcsWFAW/fXXXx980DnX1tYWvr7++uvLOk9wsEgqFUzORxBAAAEE0iPQ1eWvuio9l5OuKxGpCrEVuO7u7tbWVufc2Wef/eabb/b09Fx66aXOuYaGho0bN0bPur293Tl30kkndXd3e++7u7tPOukk51x7e3v0k4RHiqQSzsMLBBBAAIHMCXR1+Y6O/v/o7R/+IXPXnoQLFqkKsRW4lStXOucmTpzY09MT5jVr1izn3IUXXhi+M+yLpqYm51xnZ2d4ZGdnp3OuqakpfCf6C5FUog/MkQgggAACqRII25tz/R3uoYdSdXWpuBiRqhBbgZszZ45z7pxzzilMc+HChc65o446qvDN0q+DznfPPfeEh91zzz3OuVmzZoXvRH8hkkr0gTkSAQQQQCA9AkXt7bLL0nNpKboSkaoQW4ELiteyZcs6Ozsn7vmns7Nz7dq1zrnx48dHD/qxxx6bNGnSuHHjvvnNb65evfqb3/zmuHHjJk2a9Nhjj0U/SXikSCrhPLxAAAEEEMiKAO0tIUmLVIXYCtyUKVOcc2vWrFm0aFFw58GiRYvWr19fwd9+vvzyyyeccEJ4+8Ls2bN///vfR9kGQQaF/25paZk+fXqUz3IMAggggAACVROgvVWNsuYnynqBC24+uOGGGzZt2jR58uRJkyY9+eSTGzZsCO5jiM7/s5/9bOzYsc3NzZ/73Ocuuuii008/va2trbW1NcpvJCmsbsFrClx0eY5EAAEEEKiOAO2tOo51OkvWC9yMGTOccytXriz0vvPOO51zY8aMKXyzxOtt27a1tbU1NjY+VPCfef7ud7/bb7/9GhsbN23aVOKzg/5IJJVBZ+NNBBBAAIEUCtDekhaqSFWI7a9QTz75ZOfc3LlzC4NbsmSJc+7II48sfLPE69tuu80592d/9mdFx5xyyinv/lq4yy+/vOj9YZciqQw7JwcggAACCKRE4JRT3nvOKXctJCFUkaoQW4FbunSpc+7ggw/u7e0N8zr22GOdc/PmzQvfKf3ixz/+sXNuypQp+Xy+8Mjjjz/eOXdZ+f9LEEml8Fp4jQACCCCQZoFXX/UzZ/Z3uPL//1lpZhG+NpGqEFuBy+VywdMX5s6du3Pnzl27dgW/Q8Q59/DDDxcGl8/n58yZ09raunz58sL3vfcvvPBCQ0ODc+5v//Zvt2/f7r1/4403gj/Gc85t2LCh6PhhlyKpDDsnByCAAAIIpEfg1Vd9RU8PSo9Aoq5EpCrEVuC898uWLQtuHS18lNb8+fOLcty6dWtw2LRp04p+5L1fsGBBeP/pvvvuG/Q559xpp5028OBh3xFJZdg5OQABBBBAIMEC9m+NEnwhmRxdpCrEWeC897fddtvRRx89evTo5ubmI4444pprrin6y1DvfT6fP+2001pbW1esWDHoVrn11ls/9rGPjR07tqGhoa2t7dhjj7322mv7+voGPbj0myKplB6SnyKAAAIIJFigq8v/3//rn3oqwZeQ7dFFqkLMBU5tD4ikosbCPAgggAAC1REI7zn9wAfocNUhrftZRKoCBc4kL5KKmYkFAggggEA6BML2Fjzn9Ior0nFZWbsKkapAgTMbTyQVMxMLBBBAAIEUCBS1N+45TWymIlWBAmd2kEgqZiYWCCCAAAJJF6C9JT3BgvlFqgIFriAT70VSMTOxQAABBBBItADtLdHxDRhepCpQ4EwyIqmYmVgggAACCCRXgPaW3OyGmFykKlDgTD4iqZiZWCCAAAIIJFSA9pbQ4EqOLVIVKHAmJZFUzEwsEEAAAQQSKnDXXX7UqL2POuWuhYSGOGBskapAgTPJiKRiZmKBAAIIIJBcgZ/8pL/D0d6Sm+CAyUWqAgXOJCOSipmJBQIIIIBAogWeeSbR4zN8kYBIVaDAmVxEUjEzsUAAAQQQSJDAtm1+9+4Ezcuo5QqIVAUKnAlOJBUzEwsEEEAAgaQIBHctnHUWHS4piVUwp0hVoMCZ7ERSMTOxQAABBBBIhEDhPadnneXz+URMzZDlCohUBQqcCU4kFTMTCwQQQAABfYHC9uYcdy3oJ1bxhCJVgQJnEhRJxczEAgEEEEBAXID2Jh5QVccTqQoUOJOqSCpmJhYIIIAAAsoCtDfldGowm0hVoMCZbEVSMTOxQAABBBCQFaC9yUZTs8FEqgIFziQskoqZiQUCCCCAgKYA7U0zlxpPJVIVKHAmZ5FUzEwsEEAAAQQEBbZu9R0dex+TxV0LggHVbCSRqkCBMwmLpGJmYoEAAgggICjwzjv+pJN4zqlgMrUeSaQqUOBM0CKpmJlYIIAAAghoCgQdjuecaqZTs6lEqgIFziQskoqZiQUCCCCAgKwAT82SjaZmg4lUBQqcSVgkFTMTCwQQQAABEYGuLv+rX4nMwhhxCYhUBQqc2QAiqZiZWCCAAAIIKAgE95y2tvr771cYhxniEhCpChQ4swFEUjEzsUAAAQQQiF2g8DeGtLb6l16KfSIGiEtApCpQ4MwGEEnFzMQCAQQQQCBegcL2xm8MiTcLgW8XqQoUOAtCh/UAACAASURBVLMXRFIxM7FAAAEEEIhRgPYWI77kV4tUBQqc2R0iqZiZWCCAAAIIxCVAe4tLXvh7RaoCBc7sEZFUzEwsEEAAAQRiEaC9xcIu/6UiVYECZ3aKSCpmJhYIIIAAAvUXoL3V3zwh3yhSFShwZr+IpGJmYoEAAgggUGeBfN7/2Z/xnNM6qyfl60SqAgXObBiRVMxMLBBAAAEE6i/wyCN+zJj+DseTsuqPr/2NIlWBAme2iUgqZiYWCCCAAAKxCLzb4ZYvj+Wb+VJlAZGqQIEzm0QkFTMTCwQQQAABBBCQERCpChQ4syNEUjEzsUAAAQQQqINAV5f/67/2b71Vh6/iKxItIFIVKHBmF4mkYmZigQACCCBQa4HwntPZs+lwtcZO+vlFqgIFzmwkkVTMTCwQQAABBGoqELY35/rvWrjpppp+GydPuoBIVaDAmY0kkoqZiQUCCCCAQO0Eitob95zWjjotZxapChQ4s6FEUjEzsUAAAQQQqJEA7a1GsKk+rUhVoMCZXSaSipmJBQIIIIBALQRob7VQzcA5RaoCBc7sNZFUzEwsEEAAAQSqLkB7qzppZk4oUhUocGbHiaRiZmKBAAIIIFBdAdpbdT0zdjaRqkCBM/tOJBUzEwsEEEAAgeoKfPe7POe0uqKZOptIVaDAmV0nkoqZiQUCCCCAQHUF8nn/ta/xnNPqombnbCJVgQJntpxIKmYmFggggAACVRfI5/1991X9rJwwCwIiVYECZzabSCpmJhYIIIAAAiMXeOedkZ+DMyDgvRepChQ4sxtFUjEzsUAAAQQQGKFALuenTfM/+MEIT8PHEaDAie4BCpxoMIyFAAIIVCyQy/mOjv7/4q2hgQ5XsSIfDAVEqgJ/Ahcm0v9CJBUzEwsEEEAAgYoFwvYWPOd0yZKKz8QHEQgERKoCBc5sSJFUzEwsEEAAAQQqEyhqb4sXV3YaPoVAoYBIVaDAFYbCn8AZDRYIIIBAggVobwkOT3p0CpxiPCKpKNIwEwIIIJAgAdpbgsJK2qgiVYE/gTMbRyQVMxMLBBBAAIGyBGhvZXFxcJkCIlWBAmdyE0nFzMQCAQQQQCC6AO0tuhVHViQgUhUocCY9kVTMTCwQQAABBKILvPCCP+SQvY865a6F6G4cGVlApCpQ4ExiIqmYmVgggAACCJQlEHQ42ltZaBwcWUCkKlDgTGIiqZiZWCCAAAIIlCvwxhvlfoLjEYgoIFIVKHAmL5FUzEwsEEAAAQRKC+Ry/uWXSx/CTxGoloBIVaDAmUBFUjEzsUAAAQQQKCEQ3LUwdSodrgQSP6qigEhVoMCZTEVSMTOxQAABBBAYSqDwntNp0/xbbw11IO8jUC0BkapAgTOBiqRiZmKBAAIIIDCoQGF7c85z18KgSrxZbQGRqkCBM8GKpGJmYoEAAgggMFCA9jbQhHfqIiBSFShwJm2RVMxMLBBAAAEEigRob0UgLOsoIFIVKHAmc5FUzEwsEEAAAQQKBWhvhRq8rruASFWgwJnkRVIxM7FAAAEEEAgFaG8hBS9iEhCpChQ4k79IKmYmFggggAACgcDbb/vDDtv7mCzuWmBXxCQgUhUocCZ/kVTMTCwQQAABBEKBK6/kOachBi9iERCpChQ4k75IKmYmFggggAAChQJXXslvDCn04HWdBUSqAgXO5C6SipmJBQIIIIAAAgjICIhUBQqc2REiqZiZWCCAAAJZFujq8suW+Xw+ywZcu5SASFWgwJldIZKKmYkFAgggkFmBri7f0dH/H71dcgkdLrO7QO3CRaoCBc5sDJFUzEwsEEAAgWwKhO3Nuf4O96tfZZOBq1YTEKkKFDizMURSMTOxQAABBDIoUNTeeM5pBveA6iWLVAUKnNkgIqmYmVgggAACWROgvWUt8URdr0hVoMCZXSOSipmJBQIIIJApAdpbpuJO4MWKVAUKnNk7IqmYmVgggAAC2RGgvWUn68ReqUhVoMCZHSSSipmJBQIIIJARAdpbRoJO+GWKVAUKnNlHIqmYmVgggAACGRH44hd5zmlGok70ZYpUBQqc2UUiqZiZWCCAAAIZEdixwx99dH+H457TjCSezMsUqQoUOLN9RFIxM7FAAAEEsiOwY4e/8cbsXC5XmkQBkapAgTObRyQVMxMLBBBAIMUCPCMrxeGm9NJEqgIFzuwvkVTMTCwQQACBtAp0dfljjvGdnWm9Pq4rlQIiVYECZ3aXSCpmJhYIIIBAKgXCe07Hj6fDpTLhtF6USFWgwJkNJpKKmYkFAgggkD6BsL0FzzldsSJ9l8gVpVVApCpQ4MwGE0nFzMQCAQQQSJlAUXu77LKUXR+Xk24BkapAgTPbTCQVMxMLBBBAIE0CtLc0pZnJaxGpChQ4s/tEUjEzsUAAAQRSI0B7S02UGb4QkapAgTN7UCQVMxMLBBBAIB0CtLd05Jj5qxCpChQ4sxNFUjEzsUAAAQRSIEB7S0GIXMIeAZGqQIEz+1EkFTMTCwQQQCAFAr/4hW9u3vuoU+5aSEGgGb4EkapAgTN7UCQVMxMLBBBAIB0CP/tZf4ejvaUjzQxfhUhVoMCZPSiSipmJBQIIIJAageeeS82lcCGZFRCpChQ4swNFUjEzsUAAAQQSKtDd7Xt7Ezo7YyMwlIBIVaDAmYBEUjEzsUAAAQSSKBDctTBnDh0uiekxcwkBkapAgTMZiaRiZmKBAAIIJE6g8J7TOXN8X1/iroCBERhKQKQqUOBMQCKpmJlYIIAAAskSKGxvznHXQrLSY9phBUSqAgXOJCWSipmJBQIIIJAgAdpbgsJi1IoERKoCBc6kJ5KKmYkFAgggkBQB2ltSkmLOEQiIVAUKnMlQJBUzEwsEEEAgEQK0t0TExJAjFhCpChQ4k6RIKmYmFggggIC+AO1NPyMmrJKASFWgwJk8RVIxM7FAAAEExAVeecV3dOx9TBZ3LYiHxXgjFhCpChQ4k6RIKmYmFggggIC4wK5d/tRTec6peEqMVy0BkapAgTOBiqRiZmKBAAII6AsEHY7nnOonxYQjFhCpChQ4k6RIKmYmFggggEAiBPhtvYmIiSFHLCBSFShwJkmRVMxMLBBAAAFBga4uf999gnMxEgK1FhCpChQ4E7RIKmYmFggggICaQHDPaUuLv+cetdGYB4FaC4hUBQqcCVokFTMTCwQQQEBKoPA3hrS0+Oefl5qOYRCotYBIVaDAmaBFUjEzsUAAAQR0BArbG78xRCcXJqmjgEhVoMCZzEVSMTOxQAABBEQEaG8iQTBGrAIiVYECZ3aBSCpmJhYIIICAggDtTSEFZhAQEKkKFDizF0RSMTOxQAABBGIXoL3FHgEDyAiIVAUKnNkRIqmYmVgggAAC8QrQ3uL159vFBESqAgXO7AuRVMxMLBBAAIEYBfJ5/5GP8JzTGBPgq9UERKoCBc5sDJFUzEwsEEAAgXgFfvMb//7393c4npQVbxB8u4aASFWgwJntIJKKmYkFAgggELvAb37jV6yIfQoGQEBBQKQqUODMZhBJxczEAgEEEEAAAQRkBESqAgXO7AiRVMxMLBBAAIE6C3R1+dNP96+/Xuev5esQSISASFWgwJndIpKKmYkFAgggUE+B8J7Tj3yEDldPeL4rKQIiVYECZzaMSCpmJhYIIIBA3QTC9uZc/10LN95Yt2/mixBIioBIVaDAmQ0jkoqZiQUCCCBQH4Gi9sY9p/Vh51uSJiBSFShwZuOIpGJmYoEAAgjUQYD2VgdkviIVAiJVgQJndpNIKmYmFggggECtBWhvtRbm/CkSEKkKFDizp0RSMTOxQAABBGoqQHurKS8nT52ASFWgwJmdJZKKmYkFAgggUDsB2lvtbDlzSgVEqgIFzuwvkVTMTCwQQACB2gl873s857R2upw5lQIiVSHmArdu3brjjjuutbW1ubl55syZq1evrjjsbdu2LVu27IQTTpg8eXJzc/ONFd39LpJKxQh8EAEEEChPIJ/3F1/Mc07LQ+PobAuIVIU4C9yqVavcnn+ampqam5uD1wsWLKhgY1x55ZX77rtvcAbn3D777LNs2bIKziOSSgWT8xEEEECgQoF83m/YUOFn+RgC2RMQqQqxFbju7u7W1lbn3Nlnn/3mm2/29PRceumlzrmGhoaNGzeWtR+++93vBtXt4x//+K233rply5Z8Pl/WGcKDRVIJ5+EFAgggUH2Bt9+u/jk5IwKZERCpCrEVuJUrVzrnJk6c2NPTE4Y+a9Ys59yFF14YvjPsiyeeeKKxsdE5d9VVVw178LAHiKQy7JwcgAACCFQo0NXlDzvMV+P/waxwAD6GQMIFRKpCbAVuzpw5zrlzzjmnMMeFCxc654466qjCN0u//uIXv+ic+9KXvlT6sIg/FUkl4rQchgACCJQnUHjPKR2uPDuORmCvgEhViK3ABX/YtmzZss7Ozol7/uns7Fy7dq1zbvz48RG3SV9f35gxY5xzDz744NVXXz116tSmpqZx48adeeaZr7zyyrAnCTIo/HdLS8v06dOH/SAHIIAAAskTKGxvzvnFi5N3CUyMgIBA1gvclClTnHNr1qxZtGhR8F+wLVq0aP369c65pqamiAE999xzwWcvv/xy59zo0aNHjRoVvPOhD33onXfeKX2ewuoWvKbAlRbjpwggkFQB2ltSk2NuOYGsF7j29nbn3A033LBp06bJkydPmjTpySef3LBhQ3AfQ8S4HnrooaCunXjiiY8//ng+n9+1a9dNN920zz77OOd+9KMfRTxPeJhIKuE8vEAAAQSqIEB7qwIip0Bgr4BIVYjtr1BnzJjhnFu5cmXhjrjzzjudc2PGjCl8s8Tr4E/snHNFN66eeeaZzrmvfvWrJT476I9EUhl0Nt5EAAEEKhGgvVWixmcQGFJApCrEVuBOPvlk59zcuXMLhZYsWeKcO/LIIwvfLPH6gQceCP4Erq+vr/Cwiy++2Dn35S9/ufDNKK9FUokyKscggAACwwvQ3oY34ggEyhMQqQqxFbilS5c65w4++ODe3t5Q7thjj3XOzZs3L3yn9Ivnn38+KHBFfwJ34oknOucuvfTS0h8f+FORVAYOxjsIIIBA2QK5nO/oeO9JWdy1ULYgH0BgEAGRqhBbgcvlcsHTF+bOnbtz585du3YFv0PEOffwww8XguXz+Tlz5rS2ti5fvrzw/eB1cDPEzJkzgw63c+fO8K6IJ554YuDxpd8RSaX0kPwUAQQQiCSwZUv/r3xzrv//aG+RyDgIgeEFRKpCbAXOe79s2bLgz88KH6U1f/78IrytW7cGh02bNq3oR977devWBb/IN7gLNXz9jW98Y+DBw74jksqwc3IAAgggEElgyxY/dSrtLZIVByEQTUCkKsRZ4Lz3t91229FHHz169Ojm5uYjjjjimmuuGfgUrHw+f9ppp7W2tq5YsWJQ2w0bNvzVX/3V+PHjnXNtbW0f/ehHb7311kGPHPZNkVSGnZMDEEAAgagCb70V9UiOQwCBCAIiVSHmAhcBqq6HiKRS12vmyxBAIE0CuZx/8cU0XRDXgoCagEhVoMCZjSGSipmJBQIIIBBRILhrob2dDhcRjMMQqEBApCpQ4Ex2IqmYmVgggAACUQQK7zltb/dvvBHlQxyDAALlCohUBQqcCU4kFTMTCwQQQGBYgcL2xj2nw3JxAAIjEBCpChQ4k6FIKmYmFggggEBpAdpbaR9+ikBVBUSqAgXOpCqSipmJBQIIIFBCgPZWAocfIVADAZGqQIEz2YqkYmZigQACCAwlQHsbSob3EaiZgEhVoMCZhEVSMTOxQAABBAYVoL0NysKbCNRYQKQqUOBMziKpmJlYIIAAAgMF3nmn/xELwWOyuGthoA/vIFAzAZGqQIEzCYukYmZigQACCAwqsHq1b2jgOaeD2vAmArUTEKkKFDgTsUgqZiYWCCCAwFACq1f7JUuG+iHvI4BALQREqgIFzoQrkoqZiQUCCCCAAAIIyAiIVAUKnNkRIqmYmVgggAACgUAu5xct8vk8HgggEKOASFWgwJk9IJKKmYkFAggg4L0P7zn9+tfpcOwIBGIUEKkKFDizB0RSMTOxQAABBML2Ftx2+stfQoIAAnEJiFQFCpzZACKpmJlYIIBAxgWK2tvixRn34PIRiFdApCpQ4Mw2EEnFzMQCAQSyLEB7y3L6XLukgEhVoMCZ3SGSipmJBQIIZFaA9pbZ6LlwYQGRqkCBM3tEJBUzEwsEEMimAO0tm7lz1fICIlWBAmd2ikgqZiYWCCCQQQHaWwZD55ITIiBSFShwZr+IpGJmYoEAAhkU+Ou/5jmnGYydS06EgEhVoMCZ3SKSipmJBQIIZFDgrbf8Rz/Kc04zmDyXrC8gUhUocGariKRiZmKBAALZFHjrLX/TTdm8dK4aAWUBkapAgTObRCQVMxMLBBDIiADPyMpI0FxmwgVEqgIFzuwjkVTMTCwQQCALAl1d/n//b//oo1m4Vq4RgUQLiFQFCpzZRSKpmJlYIIBA6gW6unxHR/9/8TZ2LB0u9WlzgUkXEKkKFDizkURSMTOxQACBdAuE7S14zuny5em+XK4OgaQLiFQFCpzZSCKpmJlYIIBAigWK2ttll6X4Wrk0BNIhIFIVKHBmO4mkYmZigQACaRWgvaU1Wa4r1QIiVYECZ3aZSCpmJhYIIJBKAdpbKmPlojIgIFIVKHBmr4mkYmZigQAC6ROgvaUvU64oMwIiVYECZ3acSCpmJhYIIJAyAdpbygLlcjImIFIVKHBm34mkYmZigQACKRPYsMG3tu591Cl3LaQsXC4nAwIiVYECZ/aaSCpmJhYIIJA+gfvu6+9wtLf0JcsVZUBApCpQ4MxeE0nFzMQCAQRSKfDii6m8LC4KgdQLiFQFCpzZaSKpmJlYIIBACgS2bvU9PSm4Di4BAQREqgIFzmxFkVTMTCwQQCDpAsFdCyefTIdLepLMj4D3XqQqUODMbhRJxczEAgEEEi1QeM/pySf7vr5EXw3DI4CASFWgwJmtKJKKmYkFAggkV6CwvTnHXQvJTZLJEQgFRKoCBS5MpP+FSCpmJhYIIJBQAdpbQoNjbARKCohUBQqcSUkkFTMTCwQQSKIA7S2JqTEzAhEERKoCBc5kJZKKmYkFAggkToD2lrjIGBiByAIiVYECZxITScXMxAIBBJIlQHtLVl5Mi0CZAiJVgQJnchNJxczEAgEEEiSwbZvv6Nj7mCzuWkhQcIyKQGQBkapAgTOJiaRiZmKBAAIJEti9259xBs85TVBijIpAuQIiVYECZ4ITScXMxAIBBJIlEHQ4nnOarNSYFoHIAiJVoYwCt3HjxpUrV/7DP/zD97///a6urqIr/Y//+I/Zs2cXvZm4pUgqiXNjYAQQMAL5vFmyQACBFAmIVIWoBe6CCy5oLPinubl56dKlQRxPP/30Zz/72eCHSQ9IJJWkMzI/AtkS6Oryd9+drUvmahHIsIBIVYhU4K677rqGPf/MnDnz9NNPP+qooxoaGhobG1etWnXuueeOGjUqWH7+859PeqAiqSSdkfkRyJBAcM/pqFF+3boMXTWXikCGBUSqQqQCd9RRRzU2Nn7nO98J87rkkkuC0vbu+w0NDZ/97Gc3btwY/jS5L0RSSS4gkyOQLYHC3xgyapR/9tlsXT5Xi0AmBUSqQqQC9773vW/UqFF/+MMfwqS2b98eFLhPf/rTTzzxRPh+0l+IpJJ0RuZHIBMChe2N3xiSici5SAT6BUSqQqQC19DQcMABBxTl1tDQMHbs2KI3k74USSXpjMyPQPoFaG/pz5grRGBwAZGqMKICN7DVDX6tyXlXJJXkgDEpApkUoL1lMnYuGoFAQKQqUODMhhRJxczEAgEEpARob1JxMAwCdRcQqQpRC1xjY2O7/Sf4vSGF7x166KF1Z6zyF4qkUuWr4nQIIFAtAdpbtSQ5DwKJFRCpClELXPBrREr/u7GxMbFx7B1cJJWkMzI/AukUyOf9//k/POc0neFyVQhEFhCpCpEK3AuR/4l8+aIHiqQiqsNYCCCwebOfMKG/w/GkLDYDAlkVEKkKkQpcdjISSSU74FwpAskT2LzZr1yZvLGZGAEEqiQgUhXKKHAbN25cuHDhOeecc8EFF1x99dXbtm2rEoXQaURSERJhFAQQQAABBBAoEBCpClEL3MKFC5uamoLnLgS/wretre3WW28tuKI0vBRJJQ2UXAMC6RDo6vKnnupffTUdV8NVIIDAyAVEqkKkAveLX/wiuH3huOOOu/jii7/61a9OmTKloaGhpaVl8+bNI7fQOYNIKjogTIJApgXCe04//GE6XKZ3AhePQIGASFWIVOA++9nPNjQ0zJ07N5y/p6fnL/7iLxoaGubNmxe+mYIXIqmkQJJLQCDxAmF7c67/roUf/CDxV8QFIIBANQREqkKkAjdx4sTGxsaXXnqp8MIfffTRhoaGP/3TPy18M+mvRVJJOiPzI5B4gaL2xj2niU+UC0CgagIiVSFSgRs1atS+++5bdOm7du1qaGgYP3580fuJXoqkkmhDhkcg8QK0t8RHyAUgUEMBkaoQqcAN+jB77/1Q79eQrcanFkmlxlfJ6RFAYGgB2tvQNvwEAQS89yJVgQJndqNIKmYmFgggUDcB2lvdqPkiBBIrIFIVoha4gc9CbW9vL3ocKs9CTexuZHAEEPCe9sYuQACBCAIJK3Cln4Ia/JRnoUbInUMQQEBV4Morec6pajbMhYCQQJIKXORHob4gBFzRKCKpVDQ7H0IAgREL/P3f85zTESNyAgRSLiBSFSL9FeqKFSuuueaalAey5/JEUskCNdeIgKjAv/+76GCMhQACGgIiVSFSgWtoaBg3bpyGW22nEEmlthfJ2RFAIBR4663wJS8QQACBKAIiVSFqgTvggAOiXFXSjxFJJemMzI9AMgSCuxYuvzwZ0zIlAghoCIhUBQqc2Q4iqZiZWCCAQC0ECu85pcPVQphzIpBSAZGqELXA7bfffi+99NKLw/2T9LBEUkk6I/MjoC5Q2N6c8zwpSz0w5kNASECkKkQtcMGvfCv976amJiHgikYRSaWi2fkQAghEE6C9RXPiKAQQGFRApCqUUeAOifDPoJeaoDdFUkmQGKMikDAB2lvCAmNcBOQERKpC1ALHTQxyO4iBEECgXAHaW7liHI8AAgMEKHADSATeEElFQIIREEidAO0tdZFyQQjEIiBSFfgTOJO+SCpmJhYIIDByAdrbyA05AwII7BEQqQoUOLMfRVIxM7FAAIGRC3R3+8MP3/uoU+45HbknZ0AgwwIiVSFSgXvhhRdeeumlLIQlkkoWqLlGBOotEHQ42lu93fk+BNImIFIVIhW4tNkPfT0iqQw9ID9BAIERCLz99gg+zEcRQACBfgGRqkCBM9tRJBUzEwsEEKhMIJfzv/tdZR/lUwgggMBQAiJVgQJnAhJJxczEAgEEKhDI5XxHh588mQ5XAR4fQQCBEgIiVYECZzISScXMxAIBBMoVCNqbc/13LUye7HfsKPcEHI8AAggMJSBSFShwJiCRVMxMLBBAoCyBwvbmnF+8uKxPczACCCBQWkCkKlDgTEwiqZiZWCCAQHQB2lt0K45EAIGKBESqAgXOpCeSipmJBQIIRBSgvUWE4jAEEBiBgEhVoMCZDEVSMTOxQACBKAK0tyhKHIMAAiMWEKkKFDiTpEgqZiYWCCAwrADtbVgiDkAAgSoJiFQFCpzJUyQVMxMLBBAoLdDT4//4j/c+Jou7Fkpb8VMEEBixgEhVoMCZJEVSMTOxQACBYQVuvtk3NvZ3OO45HdaKAxBAYGQCIlWBAmdiFEnFzMQCAQSiCNx8s1+yJMqBHIMAAgiMRECkKlDgTIgiqZiZWCCAAAIIIICAjIBIVaDAmR0hkoqZiQUCCAwUyOX8t7/t+/oG/oR3EEAAgZoKiFQFCpxJWSQVMxMLBBAoEgjvOT3vPDpckQ1LBBCotYBIVaDAmaBFUjEzsUAAgUKBsL0Fjzr9t38r/CGvEUAAgVoLiFQFCpwJWiQVMxMLBBAIBYraG/echjK8QACBegmIVAUKnAlcJBUzEwsEEAgEaG/sBAQQEBAQqQoUOLMXRFIxM7FAAAHvPe2NbYAAAhoCIlWBAme2g0gqZiYWCCBAe2MPIICAjIBIVaDAmR0hkoqZiQUCGRegvWV8A3D5CIgJiFQFCpzZFyKpmJlYIJBxga98heecZnwLcPkISAmIVAUKnNkVIqmYmVggkHGBt9/2J5zAc04zvgu4fAR0BESqAgXObAmRVMxMLBBA4O23/S23wIAAAggoCIhUBQqc2QwiqZiZWCCQQQGekZXB0LlkBBIiIFIVKHBmv4ikYmZigUDWBLq6/MyZ/sEHs3bdXC8CCCRCQKQqUODMbhFJxczEAoFMCXR1+Y6O/v/ira2NDpep5LlYBJIiIFIVKHBmw4ikYmZigUB2BML2FjzndNmy7Fw6V4oAAkkREKkKFDizYURSMTOxQCAjAkXtjeecZiR3LhOBpAmIVAUKnNk4IqmYmVggkAUB2lsWUuYaEUiFgEhVoMCZ3SSSipmJBQKpF6C9pT5iLhCBFAmIVAUKnNlTIqmYmVggkG4B2lu68+XqEEidgEhVoMCZnSWSipmJBQIpFqC9pThcLg2BlAqIVAUKnNlfIqmYmVggkGKBhx7q/3UhwT2n3LWQ4qC5NARSJCBSFShwZk+JpGJmYoFAugUeeKC/w9He0p0yV4dAigREqgIFzuwpkVTMTCwQSL1ALpf6S+QCEUAgNQIiVYECZ3aUSCpmJhYIpEzg5Zf9H/6QsmvichBAIDsCIlWBAme2nEgqZiYWCKRJILhr4cQT6XBpSpVrQSBTAiJVgQJndp1IKmYmFgikRqDwntMTT/S7d6fmyrgQBBDIjoBIVaDAmS0nkoqZiQUC6RAobG/O+csuS8dlcRUIIJA1AZGqQIEzG08kFTMTCwRSIEB7S0GIXAICCOwREKkKFDizH0VSMTOx3n1dZAAAIABJREFUQCDpArS3pCfI/AggUCAgUhUocAWZeC+SipmJBQKJFqC9JTo+hkcAgQECIlUh5gK3bt264447rrW1tbm5eebMmatXrx4ANfwbzzzzzKOPPvpf//VfwaHf+ta3nHPf+ta3hv/kgCNEUhkwF28gkEwB2lsyc2NqBBAoISBSFeIscKtWrXJ7/mlqampubg5eL1iwoITaoD+aPn26c+4Xv/hF8FMK3KBKvIlAvQW2b/cdHXsfk8VdC/XW5/sQQKBWAlkvcN3d3a2trc65s88++8033+zp6bn00kudcw0NDRs3boyu/uabbzY2NjrnXnvtteBTFLjoehyJQA0F+vr8V76yt8Bxz2kNoTk1AgjUVSDrBW7lypXOuYkTJ/b09ITws2bNcs5deOGF4TvDvnjggQecc1OmTAmPpMCFFLxAIGaBoMPR3mKOga9HAIFqCmS9wM2ZM8c5d8455xSiLly40Dl31FFHFb5Z+vU//dM/Oec+//nPh4dR4EIKXiAQv0A+H/8MTIAAAghUTyDrBS74w7Zly5Z1dnZO3PNPZ2fn2rVrnXPjx4+P7nzGGWc455YuXRp+hAIXUvACgXoLdHX5devq/aV8HwIIIFBHgawXuClTpjjn1qxZs2jRouD2hUWLFq1fv94519TUFD2IP/mTP3HOrV+/PvxI9AIXZFD475aWlunTp4en4gUCCJQhENxz2tjof/zjMj7FoQgggECiBLJe4Nrb251zN9xww6ZNmyZPnjxp0qQnn3xyw4YNwX0MEaMM7mBoaGjYsWNH+BEKXEjBCwTqJ1D4G0MaG/1TT9Xvq/kmBBBAoI4CWS9wM2bMcM6tXLmy0PzOO+90zo0ZM6bwzRKvgzsYpk6dWnhM9AJX+KngtUgqAwfjHQSkBQrbG78xRDoqhkMAgZEKiFSF2H4P3Mknn+ycmzt3biHkkiVLnHNHHnlk4ZslXi9fvjz469eh/l3is4P+SCSVQWfjTQREBWhvosEwFgII1ERApCrEVuCWLl3qnDv44IN7e3tD4GOPPdY5N2/evPCd0i++8IUvOOfa2tomFPyz7777vntbw7777jthwoTSHx/4U5FUBg7GOwiICtDeRINhLAQQqJWASFWIrcDlcrng6Qtz587duXPnrl27gt8h4px7+OGHC9Xz+fycOXNaW1uXL19e+P5Qr/kr1KFkeB+BKgvQ3qoMyukQQCABAlkvcN77ZcuWBX/1Wfgorfnz5xelt3Xr1uCwadOmFf1o0CUFblAW3kSgygK0tyqDcjoEEEiGAAWuP6fbbrvt6KOPHj16dHNz8xFHHHHNNdfkB/zaz3w+f9ppp7W2tq5YsSJKthS4KEocg8BIBY4/nuecjtSQzyOAQAIFKHCKoYmkokjDTAgUCTz7rJ88ub/D8aSsIhmWCCCQagGRqhDbfwOnGa5IKpo4TIVAscCzz/qrrip+kzUCCCCQagGRqkCBM7tMJBUzEwsEEEAAAQQQkBEQqQoUOLMjRFIxM7FAQESgq8t/5jO+u1tkHMZAAAEEYhEQqQoUOJO+SCpmJhYIKAiE95wefjgdTiEQZkAAgbgERKoCBc5sAJFUzEwsEIhdIGxvzvXftfD978c+EQMggAACcQmIVAUKnNkAIqmYmVggEK9AUXvjntN44+DbEUAgbgGRqkCBMxtBJBUzEwsEYhSgvcWIz1cjgICkgEhVoMCZ3SGSipmJBQJxCdDe4pLnexFAQFhApCpQ4MweEUnFzMQCgVgEaG+xsPOlCCAgLyBSFShwZqeIpGJmYoFA/QVob/U35xsRQCAhAiJVgQJn9otIKmYmFgjUX+C663jOaf3V+UYEEEiEgEhVoMCZ3SKSipmJBQKxCFx+Oc85jQWeL0UAAXEBkapAgTP7RCQVMxMLBOISeOSRuL6Z70UAAQRkBUSqAgXO7BCRVMxMLBCoj8Abb9Tne/gWBBBAINECIlWBAmd2kUgqZiYWCNRBILhr4e//vg5fxVcggAACiRYQqQoUOLOLRFIxM7FAoNYChfecLlxY62/j/AgggECiBUSqAgXO7CKRVMxMLBCoqUBhe3PO86SsmmpzcgQQSL6ASFWgwJmtJJKKmYkFArUToL3VzpYzI4BASgVEqgIFzuwvkVTMTCwQqJEA7a1GsJwWAQRSLSBSFShwZpeJpGJmYoFALQRob7VQ5ZwIIJABAZGqQIEze00kFTMTCwSqLkB7qzopJ0QAgcwIiFQFCpzZcSKpmJlYIFBdgVzOd3TwpKzqonI2BBDIjoBIVaDAmS0nkoqZiQUC1RV49VX/4Q/vLXDcc1pdW86GAAIZEBCpChQ4s9dEUjEzsUCg6gJBh6O9VR2WEyKAQAYERKoCBc7sNZFUzEwsEKiFwDvv1OKsnBMBBBBIvYBIVaDAmZ0mkoqZiQUCIxfo6vJPPTXy03AGBBBAAAGRqkCBM1tRJBUzEwsERigQ3HM6YYLfvHmEZ+LjCCCAAAIiVYECZ7aiSCpmJhYIjESg8DeGTJjgX311JCfjswgggAACIlWBAme2okgqZiYWCFQsUNjenPOLF1d8Jj6IAAIIIBAIiFQFCpzZkCKpmJlYIFCZAO2tMjc+hQACCJQUEKkKFDiTkkgqZiYWCFQgQHurAI2PIIAAAhEERKoCBc5kJZKKmYkFAuUK0N7KFeN4BBBAILKASFWgwJnERFIxM7FAoCwB2ltZXByMAAIIlCkgUhUocCY3kVTMTCwQiC6wa5f/kz957zmn3LUQnY4jEUAAgWgCIlWBAmfiEknFzMQCgbIE1q71o0b1dzjaW1luHIwAAghEExCpChQ4E5dIKmYmFgiUK7B2rV+6tNwPcTwCCCCAQBQBkapAgTNhiaRiZmKBAAIIIIAAAjICIlWBAmd2hEgqZiYWCJQWyOX8xRf73btLH8VPEUAAAQSqIiBSFShwJk2RVMxMLBAoIZDL+Y6O/v/i7cwz6XAlnPgRAgggUC0BkapAgTOBiqRiZmKBwFACYXtzrr/D3XXXUAfyPgIIIIBAtQREqgIFzgQqkoqZiQUCgwoUtTfuOR1UiTcRQACBaguIVAUKnAlWJBUzEwsEBgrQ3gaa8A4CCCBQFwGRqkCBM2mLpGJmYoFAkQDtrQiEJQIIIFBHAZGqQIEzmYukYmZigUChAO2tUIPXCCCAQN0FRKoCBc4kL5KKmYkFAqEA7S2k4AUCCCAQk4BIVaDAmfxFUjEzsUAgFLjgAp5zGmLwAgEEEIhFQKQqUOBM+iKpmJlYIBAK9PT4k07iOaehBy8QQACB+guIVAUKnIleJBUzEwsECgV6evxPflL4Bq8RQAABBOopIFIVKHAmdJFUzEwsMi7Q15dxAC4fAQQQkBIQqQoUOLMrRFIxM7HIskAu5484wv/yl1k24NoRQAABKQGRqkCBM7tCJBUzE4vMCoT3nLa20uEyuwu4cAQQUBMQqQoUOLMxRFIxM7HIpkDY3oLnnH7ve9lk4KoRQAABNQGRqkCBMxtDJBUzE4sMChS1N55zmsE9wCUjgICqgEhVoMCZDSKSipmJRdYEaG9ZS5zrRQCBRAmIVAUKnNk1IqmYmVhkSoD2lqm4uVgEEEiggEhVoMCZvSOSipmJRXYEaG/ZyZorRQCBxAqIVAUKnNlBIqmYmVhkRID2lpGguUwEEEi4gEhVoMCZfSSSipmJRUYEfv1rP2bM3kedctdCRkLnMhFAIIECIlWBAmf2jkgqZiYW2RF49FE/dqynvWUnca4UAQQSKCBSFShwZu+IpGJmYpEpgVdeydTlcrEIIIBA4gREqgIFzuwckVTMTCxSLLBli3/rrRRfH5eGAAIIpE9ApCpQ4MzWEknFzMQirQJdXb6jw8+eTYdLa8JcFwIIpFJApCpQ4MzuEknFzMQilQJBewsekzV7tu/tTeVVclEIIIBA+gREqgIFzmwtkVTMTCzSJ1DY3pzzl12WvkvkihBAAIG0CohUBQqc2WAiqZiZWKRMgPaWskC5HAQQyJiASFWgwJl9J5KKmYlFmgRob2lKk2tBAIFMCohUBQqc2X0iqZiZWKRGgPaWmii5EAQQyLCASFWgwJk9KJKKmYlFOgRob+nIkatAAIHMC4hUBQqc2YkiqZiZWKRA4NVX+39jSHDPKXctpCBQLgEBBDIsIFIVKHBmD4qkYmZikQKBfN5/7Wt7Cxz3nKYgUC4BAQQyLCBSFShwZg+KpGJmYpEOgaDD0d7SkSZXgQACGRYQqQoUOLMHRVIxM7FIjUA+n5pL4UIQQACBzAqIVAUKnNmBIqmYmVgkVKCry99yS0JnZ2wEEEAAgaEERKoCBc4EJJKKmYlFEgWCe04bGvz11ydxfGZGAAEEEBhKQKQqUOBMQCKpmJlYJE6g8DeGNDT4jRsTdwUMjAACCCAwlIBIVaDAmYBEUjEzsUiWQGF74zeGJCs7pkUAAQQiCIhUBQqcyUokFTMTiwQJ0N4SFBajIoAAAhUJiFQFCpxJTyQVMxOLpAjQ3pKSFHMigAACIxAQqQoUOJOhSCpmJhaJEKC9JSImhkQAAQRGLCBSFShwJkmRVMxMLPQFaG/6GTEhAgggUCUBkapAgTN5iqRiZmKhL3DCCTznVD8lJkQAAQSqIiBSFShwJk2RVMxMLPQFXnjBt7f3dzielKUfFhMigAACIxMQqQoUOBOjSCpmJhaJEHjhBb9qVSImZUgEEEAAgZEIiFQFCpwJUSQVMxMLBBBAAAEEEJAREKkKFDizI0RSMTOxEBTo6vKf+pTfskVwNEZCAAEEEKipgEhVoMCZlEVSMTOxUBMI7zmdOpUOpxYO8yCAAAK1FhCpChQ4E7RIKmYmFlICYXtzrv+uhWuvlZqOYRBAAAEEai0gUhUocCZokVTMTCx0BIraG/ec6kTDJAgggEC9BESqAgXOBC6SipmJhYgA7U0kCMZAAAEEYhUQqQoUOLMLRFIxM7FQEKC9KaTADAgggICAgEhVoMCZvSCSipmJRewCtLfYI2AABBBAQEZApCpQ4MyOEEnFzMQiXgHaW7z+fDsCCCAgJiBSFShwZl+IpGJmYhGvwI038pzTeBPg2xFAAAEpAZGqQIEzu0IkFTMTi9gFrrqK55zGHgIDIIAAAiICIlWBAmf2g0gqZiYWCgKPP64wBTMggAACCMQuIFIVKHBmJ4ikYmZiUX+BHTt8Pl//r+UbEUAAAQT0BUSqAgXObBWRVMxMLOosENy1cPHFdLg6w/N1CCCAQCIERKoCBc7sFpFUzEws6ilQeM/pxRfX85v5LgQQQACBRAiIVAUKnNktIqmYmVjUTaCwvTnneVJW3eT5IgQQQCA5AiJVgQJntoxIKmYmFvURoL3Vx5lvQQABBBIuIFIVKHBmH4mkYmZiUQcB2lsdkPkKBBBAIBUCIlWBAmd2k0gqZiYWtRagvdVamPMjgAACKRIQqQoUOLOnRFIxM7GoqQDtraa8nBwBBBBInYBIVaDAmZ0lkoqZiUXtBHI539HBk7JqB8yZEUAAgfQJiFQFCpzZWiKpmJlY1E7g9df9Rz6yt8Bxz2ntnDkzAgggkCIBkapAgTN7SiQVMxOLmgoEHY72VlNkTo4AAgikSECkKlDgzJ4SScXMxKLWAj09tf4Gzo8AAgggkBoBkapAgTM7SiQVMxOL6gp0dfnOzuqekrMhgAACCGRHQKQqUODMlhNJxczEoooCwT2n73+//81vqnhWToUAAgggkB0BkapAgTNbTiQVMxOLagkU/saQ97/fb9tWrRNzHgQQQACB7AiIVAUKnNlyIqmYmVhURaCwvfGc06qQchIEEEAgkwIiVYECZ3afSCpmJhYjF6C9jdyQMyCAAAII7BEQqQoUOLMfRVIxM7EYoQDtbYSAfBwBBBBAoEBApCpQ4Aoy8V4kFTMTi5EI0N5GosdnEUAAAQQGCIhUBQqcSUYkFTMTi4oFaG8V0/FBBBBAAIEhBESqAgXO5COSipmJRWUCu3f7ww/nOaeV4fEpBBBAAIGhBESqAgXOBCSSipmJRcUC99zjW1r6OxxPyqrYkA8igAACCFgBkapAgTOxiKRiZmIxEoF77vFLl47kBHwWAQQQQACBQgGRqkCBKwyFmxiMBgsEEEAAAQQQKBKgwBWBSCxFUpGwSOIQuZy/6CLf25vE2ZkZAQQQQCARAiJVgT+BM7tFJBUzE4uIArmc7+jo/y/eTj2VDhfRjMMQQAABBMoVEKkKFDgTnEgqZiYWUQTC9uZcf4e7444oH+IYBBBAAAEEyhUQqQoUOBOcSCpmJhbDChS1t8WLh/0EByCAAAIIIFCZgEhVoMCZ+ERSMTOxKC1Aeyvtw08RQAABBKoqIFIVYi5w69atO+6441pbW5ubm2fOnLl69epykfv6+m666aaPfexj++23X2Nj46RJk84888znn3++3PMEx4ukUtnwWfwU7S2LqXPNCCCAQJwCIlUhzgK3atUqt+efpqam5ubm4PWCBQuix7Jz586//Mu/DE/S2toavD7wwANffvnl6OcJjxRJJZyHF6UEaG+ldPgZAggggEBNBESqQmwFrru7O+hbZ5999ptvvtnT03PppZc65xoaGjZu3BiR/Ne//nVbW9u4ceOuvfbat956y3v/yCOPTJw40Tn3d3/3dxFPUniYSCqFI/F6cAHa2+AuvIsAAgggUFsBkaoQW4FbuXKlc27ixIk9PT2h9KxZs5xzF154YfjOsC8ee+yx5557rvCwf/zHf3TOfeITnyh8M+JrkVQiTpvpwy666L3nnHLXQqa3AhePAAII1FVApCrEVuDmzJnjnDvnnHMK1RcuXOicO+qoowrfLPf1P//zPzvn/vzP/7zcD3rPkxgqMIvpI729/b/vzTlPe4spAb4WAQQQyKZA1gtc8Idty5Yt6+zsnLjnn87OzrVr1zrnxo8fP5I98fWvf905N3fu3GFPEmRQ+O+Wlpbp06cP+0EOkBDo7eX3vUkEwRAIIIBAlgSyXuCmTJninFuzZs2iRYuCOw8WLVq0fv1651xTU1PFO2Hnzp0f+MAHnHM///nPhz1JYXULXlPghkWL84Ddu+P8dr4bAQQQQAABmb+si+2vUNvb251zN9xww6ZNmyZPnjxp0qQnn3xyw4YNwX0MFe+Q4I/fjjnmmHw+X8FJRGp1BZOn/yO5nD/8cH/33em/Uq4QAQQQQEBYQKQqxFbgZsyY4ZxbuXJlYUZ33nmnc27MmDGFb0Z/feWVVwYf/+1vfxv9U4VHiqRSOBKv+wXCe06bm+lwbAkEEEAAgRgFRKpCbAXu5JNPHvhfqi1ZssQ5d+SRR5YbzO7duxcsWOCc22+//TZs2FDux8PjRVIJ5+FFv0DY3oLnnF5+OSwIIIAAAgjEJSBSFWIrcEuXLnXOHXzwwb29vWEGxx57rHNu3rx54TtRXmzevPmYY4559y9k29vbn3jiiSgfGeoYkVSGGi+L7xe1N+45zeIm4JoRQAABIQGRqhBbgcvlcsHTF+bOnbtz585du3YFv0Pk3V/h9vDDDxcGlc/n58yZ09raunz58sL3g9fz588fNWqUc+7zn//866+/PvCAst4RSaWsmdN8MO0tzelybQgggEAiBUSqQmwFznu/bNmy8ClY4aO05s+fX5Tn1q1bg8OmTZtW9CPvffAj59y+++47xv5z9dVXDzy+9DsiqZQeMis/pb1lJWmuEwEEEEiSgEhViLPAee9vu+22o48+evTo0c3NzUccccQ111wz8O7RfD5/2mmntba2rlixYmDCYYEb+GLQP7EbeIbCd0RSKRwpo69pbxkNnstGAAEE1AVEqkLMBU4tJZFU1FjqPQ/trd7ifB8CCCCAQFQBkapAgTOBiaRiZsrg4v/9P//+9+991Cl3LWRwA3DJCCCAgLCASFWgwJk9IpKKmSmbi87O/g5He8tm+lw1AgggICwgUhUocGaPiKRiZsrs4r/+K7OXzoUjgAACCMgKiFQFCpzZISKpmJkystiyxe/YkZFr5TIRQAABBJIrIFIVKHBmC4mkYmbKwqKry3d0+I98hA6XhbS5RgQQQCDRAiJVgQJndpFIKmam1C+C9hY8JusjH/E9Pam/Yi4QAQQQQCC5AiJVgQJntpBIKmamdC8K25tz3LWQ7rS5OgQQQCAFAiJVgQJn9pJIKmamFC9obykOl0tDAAEEUiogUhUocGZ/iaRiZkrrgvaW1mS5LgQQQCDVAiJVgQJndplIKmamVC5ob6mMlYtCAAEEMiAgUhUocGaviaRiZkrfgvaWvky5IgQQQCAzAiJVgQJndpxIKmamlC127Oj/jSHBPafctZCycLkcBBBAIAMCIlWBAmf2mkgqZqaULfJ5f/HFPOc0ZalyOQgggEB2BESqAgXObDmRVMxM6VsEHY7nnKYvWa4IAQQQyICASFWgwJm9JpKKmYkFAggggAACCMgIiFQFCpzZESKpmJlSsOjq8jfemILr4BIQQAABBBAQqQoUOLMVRVIxMyV9Ed5zetVVSb8U5kcAAQQQQECkKlDgzFYUScXMlOhF2N6C204ffzzRV8PwCCCAAAIIiFQFCpzZiiKpmJmSuyhqb5ddltxLYXIEEEAAAQQCAZGqQIEzG1IkFTNTQhe0t4QGx9gIIIAAAiUFRKoCBc6kJJKKmSmJC9pbElNjZgQQQACBCAIiVYECZ7ISScXMlLgF7S1xkTEwAggggEBkAZGqQIEziYmkYmZK1oL2lqy8mBYBBBBAoEwBkapAgTO5iaRiZkrW4lOfeu85p9y1kKzsmBYBBBBAIIKASFWgwJmsRFIxMyVrsWWLnzq1v8PR3pIVHNMigAACCEQTEKkKFDgTl0gqZqbELbZs8ddem7ipGRgBBBBAAIEoAiJVgQJnwhJJxczEAgEEEEAAAQRkBESqAgXO7AiRVMxM4ouuLn/CCf6FF8THZDwEEEAAAQSqIiBSFShwJk2RVMxMyovwntP2djqcclDMhgACCCBQLQGRqkCBM4GKpGJmkl2E7S14zumqVbKTMhgCCCCAAALVEhCpChQ4E6hIKmYmzUVRe+OeU82YmAoBBBBAoNoCIlWBAmeCFUnFzCS4oL0JhsJICCCAAAJ1ERCpChQ4k7ZIKmYmtQXtTS0R5kEAAQQQqKOASFWgwJnMRVIxM0ktaG9ScTAMAggggEDdBUSqAgXOJC+SiplJZ0F708mCSRBAAAEEYhIQqQoUOJO/SCpmJp3FLbf4hoa9jzrlrgWdXJgEAQQQQKCOAiJVgQJnMhdJxcwktbj++v4OR3uTCoVhEEAAAQTqKCBSFShwJnORVMxMaouNG9UmYh4EEEAAAQTqJiBSFShwJnGRVMxM8S5efdXn8/GOwLcjgAACCCCgIyBSFShwZkuIpGJminER3LXwta/R4WIMga9GAAEEEJASEKkKFDizK0RSMTPFtSi855QOF1cKfC8CCCCAgJiASFWgwJl9IZKKmSmWRWF7c467FmIJgS9FAAEEEBAUEKkKFDizN0RSMTPVf0F7q78534gAAgggkBABkapAgTP7RSQVM1OdF7S3OoPzdQgggAACiRIQqQoUOLNrRFIxM9VzQXurpzbfhQACCCCQQAGRqkCBM3tHJBUzU90WtLe6UfNFCCCAAAKJFRCpChQ4s4NEUjEz1WexZYvv6Nj7mCzuWqiPOd+CAAIIIJBAAZGqQIEze0ckFTNTfRZvveVnz+Y5p/XB5lsQQAABBJIrIFIVKHBmC4mkYmaq2yLocDzntG7gfBECCCCAQAIFRKoCBc7sHZFUzEz1XPT21vPb+C4EEEAAAQQSJyBSFShwZueIpGJmqt2iq8s/9ljtTs+ZEUAAAQQQSJ+ASFWgwJmtJZKKmalGi+Ce0zFj/COP1OgbOC0CCCCAAALpExCpChQ4s7VEUjEz1WJR+BtDxozxW7fW4ks4JwIIIIAAAukTEKkKFDiztURSMTNVfVHY3viNIVXn5YQIIIAAAqkWEKkKFDizy0RSMTNVd0F7q64nZ0MAAQQQyJiASFWgwJl9J5KKmamKC9pbFTE5FQIIIIBAJgVEqgIFzuw+kVTMTNVa0N6qJcl5EEAAAQQyLCBSFShwZg+KpGJmqsqC9lYVRk6CAAIIIJB5AZGqQIEzO1EkFTPTyBd9fX7GDJ5zOnJIzoAAAggggIBIVaDAma0okoqZqSqL++/3ra39HY4nZVXFk5MggAACCGRVQKQqUODMBhRJxcxUrcX99/vLL6/WyTgPAggggAAC2RQQqQoUOLP9RFIxM7FAAAEEEEAAARkBkapAgTM7QiQVM1Nli64uf/75/p13Kvs0n0IAAQQQQACBQQVEqgIFzqQjkoqZqYJFeM/pSSfR4Srw4yMIIIAAAggMJSBSFShwJiCRVMxM5S7C9uZc/10Lt99e7gk4HgEEEEAAAQSGEhCpChQ4E5BIKmamshZF7Y17TsvS42AEEEAAAQSGExCpChQ4E5RIKmam6AvaW3QrjkQAAQQQQKAiAZGqQIEz6YmkYmaKuKC9RYTiMAQQQAABBEYgIFIVKHAmQ5FUzExRFrS3KEocgwACCCCAwIgFRKoCBc4kKZKKmWnYBe1tWCIOQAABBBBAoEoCIlWBAmfyFEnFzDTs4uKLec7psEgcgAACCCCAQFUERKoCBc6kKZKKmWnYxe7d/qyzeM7psE4cgAACCCCAwMgFRKoCBc5EKZKKmSnKYvduf9ddUQ7kGAQQQAABBBAYiYBIVaDAmRBFUjEzDbro7R30bd5EAAEEEEAAgZoKiFQFCpxJWSQVM9PARS7np0/3a9cO/AnvIIAAAggggEBNBUSqAgXOpCySipmpaJHL+Y6O/v/ibdQoOlyRDUsEEEAAAQRqLSBSFShwJmiRVMxMhYuwvQXPOV26tPCHvEYAAQQQQACBWguIVAUKnAlaJBUzU7goam+LF4c/4QUCCCCAAAII1EdApCpQ4EzcIqmYmYIF7W0QFN5CAAEEEECg3gIiVYECZ4IXScWF3CpwAAAYT0lEQVTM5L2nvRWLsEYAAQQQQCAeAZGqQIEz8YukYmaivRkOFggggAACCMQpIFIVKHBmE4ik8t5MtLf3LHiFAAIIIIBA/AIiVYECZ7aCSCrvzfTUU37ChL2POuWuhfdceIUAAggggEA8AiJVgQJn4hdJxcz01FP+Ax/wtDeDwgIBBBBAAIF4BESqAgXOxC+SipnJe//qq8XvsEYAAQQQQACBOAREqgIFzoQvkUouR2MzqbBAAAEEEEBARkCiKnhPgTM7Iv5UgrsWZs6kw5lgWCCAAAIIIKAhEH9V2ONAgTPbIeZUCu85nTnTv/OOGY4FAggggAACCMQtEHNV+J/Lp8D9j8Se/2+cqRS2N+e4a8EEwwIBBBBAAAENgTirQoEABa4Aw/vYUqG9mRxYIIAAAgggICoQW1WwHhQ44xFPKrQ3EwILBBBAAAEEdAXiqQoDPChwhiSGVGhvJgEWCCCAAAIISAvEUBUG86DAGZV6p0J7M/wsEEAAAQQQUBeod1UYwoMCZ2Dqmsobb/iOjr2PyeKuBZMDCwQQQAABBEQF6loVhjagwBmbeqeycCHPOTUBsEAAAQQQQEBboN5VYQgNCpyBiSGVhQv5jSEmAxYIIIAAAggIC8RQFQbToMAZFZFUzEwsEEAAAQQQQEBGQKQqUODMjqh5Kl1d/rrrzFeyQAABBBBAAIHkCNS8KkSjoMAZp9qm0tW1966Fyy8338oCAQQQQAABBBIiUNuqEBmBAmeoaphK2N6c679x4ZFHzBezQAABBBBAAIEkCNSwKpRz+RQ4o1WrVIra22WXmW9lgQACCCCAAAIJEahVVSjz8ilwBqwmqdDejDELBBBAAAEEEixQk6pQvgcFzphVPxXamwFmgQACCCCAQLIFql8VKvKgwBm2KqdCezO6LBBAAAEEEEi8QJWrQqUeFDgjV81UaG+GlgUCCCCAAAJpEKhmVRiBBwXO4FUzlc985r3nnHLXgmFmgQACCCCAQFIFqlkVRmBAgTN41Uylu9sffnh/h6O9GWMWCCCAAAIIJFigmlVhBAwUOINX5VS6u/33v2++gAUCCCCAAAIIJFmgylWhUgoKnJETScXMxAIBBBBAAAEEZAREqgIFzuyIEaXS1eWPP94/+6w5IwsEEEAAAQQQSJHAiKpC9RwocMay8lTCe04nT6bDGVMWCCCAAAIIpEig8qpQVQQKnOGsMJWwvQXPOb3qKnNSFggggAACCCCQFoEKq0K1L58CZ0QrSaWovXHPqRFlgQACCCCAQKoEKqkKNQCgwBnUslOhvRk/FggggAACCKRcoOyqUBsPCpxxLS8V2pvBY4EAAggggED6BcqrCjXzoMAZ2jJSob0ZORYIIIAAAghkQqCMqlBLDwqc0Y2aCu3NsLFAAAEEEEAgKwJRq0KNPShwBjhqKuvW+cbGvY865a4FQ8gCAQQQQACBNAtErQo1NqDAGeAyUvnxj/s7HO3N+LFAAAEEEEAg5QJlVIVaSlDgjG55qTz1lPkwCwQQQAABBBBIu0B5VaFmGhQ4Q1sqle3bfV+fOZoFAggggAACCGRMoFRVqCMFBc5gD5lKcNfCV75ChzNeLBBAAAEEEMiYwJBVob4OFDjjPXgqhfecfuUrPp83n2GBAAIIIIAAApkRGLwq1P3yYy5w69atO+6441pbW5ubm2fOnLl69eoKBLZv3z5v3rwPfvCDjY2NBx544BlnnPHiiy9WcB7v/SCpFLY357hroTJYPoUAAggggEA6BAapCnFcWJwFbtWqVW7PP01NTc3NzcHrBQsWlOWwY8eOqVOnBp993/veF7w46KCDKutwxanQ3soKg4MRQAABBBBIu0BxVYjpemMrcN3d3a2trc65s88++8033+zp6bn00kudcw0NDRs3boyucdFFFznnxo0b9+CDD3rvN23adOihhzrnTj311OgnCY80qdDeQhdeIIAAAggggMAeAVMV4jOJrcCtXLnSOTdx4sSenp7w8mfNmuWcu/DCC8N3Sr/o6+sbP368c+6KK64Ij/zpT3/qnGtqanrttdfCNyO+eC8V2ltEMg5DAAEEEEAgSwLvVYVYrzq2Ajdnzhzn3DnnnFN4+QsXLnTOHXXUUYVvlni9efPm4O9Mc7lceNiuXbtGjx797nnuvvvu8M2IL/amQnuL6MVhCCCAAAIIZEwg6wUu+MO2ZcuWdXZ2TtzzT2dn59q1a51z48ePj7gZgj9s23///b335513XktLy3nnnee9nzFjxrvnufLKKyOeJzysP5WpU31Hx97HZHHXQkjDCwQQQAABBBAY9H7HOFhi+xO4KVOmOOfWrFmzaNGi4E/RFi1atH79+uBvPyNS/PCHP3z3JIcccoj3vqWlxTnX0tLivZ89e/a751m4cGHp8wQluvDfjY2NLc3N0/fdd7pz/f930EGFP+U1AggggAACCGRcoKWlpa2trXTBqMNPYytw7e3tzrkbbrhh06ZNkydPnjRp0pNPPrlhw4bgPoaIV37DDTe8e5L29nbv/fz581taWs4//3zv/fHHH//ueb7zne+UPs/ALdjU1NTW1tay55+BP+UdBQHSUUihxAwEVAJH4UcEpJDCUDOQzlAyIu8HAbW1tU2YMKF0wajDT2MrcMHfcq5cubLwIu+8807n3JgxYwrfLPE6+CvXcePGFR0zc+bMd8+zfPnyovcjLoONEvFgDquzAOnUGbzcryOgcsXqfDwB1Rm8rK8jnbK46n+wVECxFbiTTz7ZOTd37tzCAJYsWeKcO/LIIwvfLPH68ccfD/76tbu7Ozxs9+7d++2337vnueOOO8I3y3ohlVBZk2fhYNIRT5mACEhcQHk8/uejnM7gv+0/voljK3BLly51zh188MG9vb3h5R977LHOuXnz5oXvlH7R29s7ZswY59x1110XHvnzn/88+HvYV155JXyzrBf8T6gsrjofTDp1Bi/36wioXLE6H09AdQYv6+tIpyyu+h8sFVBsBS6XywVPX5g7d+7OnTt37doV/A4R59zDDz9cmEo+n58zZ05ra+ugfyV6/vnnO+cOPPDA4FNPP/30YYcd5pz75Cc/WXiSsl5LJVTW5Fk4mHTEUyYgAhIXUB6P//kop8OfwL2Xzv9v7+5jm6r6OID/2rJ2dR1lzSZ0kiAQRpREWBAJM0pEHUrkJVHHnLIlYNJs6KLyh1MJCxKFCOkAx4QZEFRCsiXOd8j8Y1lEEgVHqmxRcQwSBAqLotiEbaznaTh5zvrcvt3enT29l/vtH+b03HPPPffzY+673tvW7/fzC6DRX6VVW1s7MuJm6+LFi3zYzJkzFZsYY/39/fz9EEQkvkrL4/GcPn06drDKHvwIqYTKyDBUJyPs6g+KAqm3yshIFCgj7CoPiuqohMrUMF0VKGOvwHH91tbW+fPnZ2dn2+322bNn7969OxwOKwoTDofLy8udTueOHTsUm/jTYDDo8/m8Xq/FYsnPz6+oqOjt7Y07UmWnriqkcs3mGYbq6LzWKBAKpHMBPS8PPz56rg5egdN5dbA8CEAAAhCAAAQgoHeBDL8Cp3cerA8CEIAABCAAAQjoTwABTn81wYogAAEIQAACEIBAUgEEuKQ82AgBCEAAAhCAAAT0J4AAp7+aYEUQgAAEIAABCEAgqQACXFIebIQABCAAAQhAAAL6E0CA019NsCIIQAACEIAABCCQVAABLikPNkIAAhCAAAQgAAH9CSDA6a8mWBEEIAABCEAAAhBIKmCiANfW1nb//fc7nU673V5cXLx3796kMvE39vf319TU3HHHHVartaCgYNWqVefOnYs/FL3pCIy+OsPDwwcPHly0aFFubq7Vai0sLKysrDxz5kw6q8DYhAKjLxBj7Lfffjt+/PiVK1f4Yerr64movr4+4VGxQZ2AlOrwQ12+fNnv95eWlk6ePNlut3/44YfqloBRyQSkFOjIkSOlpaV5eXkWiyUvL6+0tPTIkSPJjopt6gT++uuv/fv3L1myJCsri4g++OADdfspR/3/44FZAtx7770X+72rdXV1ygokfX716tWioiI+j/je1dtvvx0ZLilb6o2jr04oFHrsscdEiZ1OJ28XFBRcuHAh9QowIqnA6AvEp7/77ruJ6JtvvuFPEeCSqqvdKKs6jLHGxsacnBz+s0NEWVlZfr9f7TowLoGAlALt27dP1MXlcon2vn37EhwW3aoEzp8/b7fbhafmAJeReGCKABcMBvlv9DVr1ly7dm1gYGDDhg1EZLFYfv75Z1VFvjlo3bp1ROTxeI4ePcoY6+7unjZtGhE9/fTT6ifBSIWAlOr8+OOPLpfL4/Hs2bPn33//ZYz98MMPXq+XiN544w3FEfE0LQEpBWKMXbt2zWq1EtGff/7JF4AAl1Yh4g6WVR3G2Ntvv81/jT388MMtLS1//PFH7DdTx10DOpMIyCrQ1KlTiWjp0qXBYJAxFgwGly5dSkRTp05NcnRsSinQ19eXl5dXWVn5+eefl5eXaw5wGYkHpghwO3fuJCKv1zswMCDKOXfuXCJ65ZVXRE/yxvDwcH5+PhG9++67YuQXX3xBRDabTfxOEpvQUCkgpTqMsRMnTvT29kYf9K233iKixx9/PLoT7XQFZBXo22+/JaLp06eLBSDACQrNDVnVOXnyJI/Xu3bt0rwY7BgrIKtANpuNiAKBgDhEIBDgv31EDxoaBIaGhgYHB/mOVVVV2gJcpuKBKQJcWVkZET3//PPR1d20aRMR3XfffdGdSdo9PT38z9Pz58+LYYODg9nZ2ZF5vv76a9GJRloCUqoT94jNzc1E9Mgjj8Tdik6VArIKtH37diJauXKlOC4CnKDQ3JBVnYqKCiJ67rnnNK8EO8YVkFUg/orD4cOHxVEOHz5MRHPnzhU9aIxSQHOAy1Q8MEWA4//0/X5/IBDw3nwEAoFPPvmEiPLz81WWnL/YNn78eMaYz+dzOBw+n48xds8990TmaWxsVDkPhikEpFRHMSd/+tJLLxFRdXV13K3oVCkgq0CrVq0ioq1bt4rjIsAJCs0NKdUZHh52u92Rv3aOHj3a1NRUVFRks9k8Hk9lZeWlS5c0rw07MsakFIhfYSgsLPR4POvXr9+7d+/69es9Hk9hYeGJEyfgLEtAc4DLVDwwRYCbPn06Ee3fv3/z5s38VbTNmzd3dHSk9frzRx99FJnkzjvvZIw5HA4icjgcjLGFCxdG5tm0aZOsf0Nmm0dKdWLRQqHQpEmTiKi9vT12K3rUC8gq0F133UVEHR0d4tAIcIJCc0NKdXp7e/n/GLdt20ZE2dnZ48aN4z2zZs26fv265uVhRykF4owXLlwoLS3ldYn8KC1cuLCvrw/CEgU0B7hMxQNTBDh+++eBAwe6u7snT55cWFh46tSpzs5O/j4GleU/cOCAuGO0trbW4XCsXbuWMfbQQw9F5tm4caPKeTBMISClOoo5GWP85bcFCxbgRuxYnLR6pBSIv4PBYrFcvXpVHB0BTlBobkipzrFjx3gsWLx4cVdXVzgcHhwcPHjwIP9UhY8//ljz8rCjlAIxxr766qsJEybY7fYnn3xy3bp1zz77rMvlcjqd2j4PC3WJK6A5wGUqHpgiwPGrnDt37oyu2WeffUZEbrc7ujNJm19y9Xg8ijHFxcWReRoaGhT9eKpSQEp1FMdqbGzkxf31118Vm/A0XQEpBeLvYCgqKoo+OgJctIa2tpTq8MsRRKR4V35lZSURvfjii9rWhr3EPTaj/O1z+fJll8tltVqPHTsmVH///Xf+mZfd3d2iE43RCGgOcJmKB6YIcMuWLYu9F+qdd94hojlz5qisd1dXF/8jlb+Lm+9148aN3NzcyDyffvqpynkwTCEgpTpizhs3btTV1RFRbm5uZ2en6EdDs4CUAjU0NIhLP3Ebmpdn8h2lVIfHayIaHh6O9nzttdeIaPXq1dGdaKclIKVAra2tRHTvvfcqDv3UU08R0bZt2xT9eKpNQHOAy1Q8MEWA27p1a+S9wVOmTBkaGhJ1LSkpIaKamhrRk7wxNDTE7/N9//33xcj29nZ+HRa3+gqTdBtSqsMP2tPTs2DBAn6l++TJk+muBOPjCkgp0DPPPBP5TeNyuSZGPfhnxubk5EycODHuodGZUkBKdc6cOcNTteIVuMWLFxPRhg0bUi4DAxIJSCnQoUOH+EfwKG4I4TfwbNmyJdHR0Z+WgOYAl6l4YIoAJz5qubq6OhQKDQ4O8s8QiXxI2Pfffx9d4HA4XFZW5nQ6414SXbt2LREVFBTwvX755ZcZM2YQ0ZIlS6InQTstAVnVqa2t5Xder1y58u+//05rDRicREBWgWIPgUuosSbp9siqDr/Xvri4mGe4UCgk3vKFv4XSLUr0eCkFOnv2rMViIaKXX365v7+fMfbPP//wi0hEhEsN0eCjaScPcDqMB6YIcIwxv9/P/8S02WziezNqa2sVxb548SIfNnPmTMUmxlh/fz+/I5WIxFdpeTye06dPxw5Gj3oBKdURF+ZycnLc//toampSvxiMjBWQUqDYaRHgYk009EipTltbG/8gX/4uVNF+9dVXNSwJu0QLSCkQvzOE/18uJyeH5zkiKi8vjz4W2ukKfPnll+7/PvinJTscDt6h+AgqHcYDswQ4xlhra+v8+fOzs7Ptdvvs2bN3796teDmaMRYOh8vLy51O544dO+L+OwgGgz6fz+v1WiyW/Pz8iooKxaf/x90LnSkFRl8dEeBiG3FfT025JAyIFhh9gaJn420EuFgTbT1SqtPZ2fnEE0/w75txuVwPPvhgS0uLtvVgL4WAlAK1tLQsWrRowoQJFovF5XKVlJTs2bNHcdui4rh4mlKgra0t9lcG76mqqoreXYfxwEQBLroSaEMAAhCAAAQgAAHjCiDAGbd2WDkEIAABCEAAAiYVQIAzaeFx2hCAAAQgAAEIGFcAAc64tcPKIQABCEAAAhAwqQACnEkLj9OGAAQgAAEIQMC4Aghwxq0dVg4BCEAAAhCAgEkFEOBMWnicNgQgAAEIQAACxhVAgDNu7bByCEAAAhCAAARMKoAAZ9LC47QhAAEIQAACEDCuAAKccWuHlUMAAhCAAAQgYFIBBDiTFh6nDQEIQAACEICAcQUQ4IxbO6wcAhCAAAQgAAGTCiDAmbTwOG0IQAACEIAABIwrgABn3Nph5RCAAAQgAAEImFQAAc6khcdpQ8C0Ah0dHZT40dDQ0NfXF73dZrNNmjRpxYoV7e3tAk0xhoicTue8efOam5vD4bAYhgYEIACBMRJAgBsjWEwLAQjoVKCzs5PnM3e8R1NTkwhnfLvT6RR57s033+RnpRjjdrutVisfVlNTw8fgvxCAAATGTgABbuxsMTMEIKBHAZ69pkyZkmhxsQPOnj3r8/mIyGKxBAIBxljsmFAoVF9fzzMcH5NofvRDAAIQGL0AAtzoDTEDBCBgJIHY7KVYfaIBJSUlkQy3cePGuAGOTzJnzhwi2r59u2JOPIUABCAgVwABTq4nZoMABPQukCifiXUnGlBXV0dEq1evThLgKioqiEhcaRVzogEBCEBArgACnFxPzAYBCOhdIFE+E+tONOCFF14gIn6LW6Ix8+bNI6Lm5mYxGxoQgAAExkIAAW4sVDEnBCCgX4FEb2Korq7mi44bzq5fvz5t2jQiamxsjPsK3JUrV15//XUiGjdu3Llz5/R7/lgZBCBwSwggwN0SZcRJQAACqgUSfYxIVVUVn0MR4AYGBo4fP/7oo48S0W233Xbp0iUR4MS7U6MbW7ZsUb0WDIQABCCgUQABTiMcdoMABAwqoMhnsWfBB0RnMt7Oyso6dOgQHy/GuG8+xo8fz8fs2rUrdkL0QAACEJAugAAnnRQTQgACuhZQH+DcNx8ej2fWrFk+n+/UqVPixGInWbZsGRGtWbNGjEEDAhCAwNgJIMCNnS1mhgAE9CgQm70Uq0w5QFxCjf4wua6ursj7T61Wa09Pj2JCPIUABCAgXQABTjopJoQABHQtkDKfpRwQN8AxxlasWEFEy5cv1/X5Y3EQgMAtIYAAd0uUEScBAQioFkiZz1IOSBTgfvrpJ4vFQkTfffed6uVgIAQgAAEtAghwWtSwDwQgYFyBlPks5YBEAY4xVlZWRkQPPPCAcX2wcghAwBACCHCGKBMWCQEIQAACEIAABEYEEOBGLNCCAAQgAAEIQAAChhBAgDNEmbBICEAAAhCAAAQgMCKAADdigRYEIAABCEAAAhAwhAACnCHKhEVCAAIQgAAEIACBEQEEuBELtCAAAQhAAAIQgIAhBBDgDFEmLBICEIAABCAAAQiMCCDAjVigBQEIQAACEIAABAwh8B+fTsVF5gAMPgAAAABJRU5ErkJggg==;" vertex="1" parent="1">
                    <mxGeometry x="106.99890584309901" y="1571.001043294271" width="832" height="798" as="geometry"/>
                </mxCell>
                <mxCell id="237" value="" style="curved=1;endArrow=none;html=1;strokeWidth=4;fillColor=#dae8fc;strokeColor=#6c8ebf;endFill=0;" edge="1" parent="1">
                    <mxGeometry width="50" height="50" relative="1" as="geometry">
                        <mxPoint x="198" y="2303" as="sourcePoint"/>
                        <mxPoint x="893" y="1611" as="targetPoint"/>
                        <Array as="points">
                            <mxPoint x="192" y="1915"/>
                            <mxPoint x="584" y="1660"/>
                        </Array>
                    </mxGeometry>
                </mxCell>
            </root>
        </mxGraphModel>
    </diagram>
</mxfile>